<svg width="502" height="87" viewBox="0 0 502 87" fill="none" xmlns="http://www.w3.org/2000/svg">
<path d="M28.042 6.19C28.042 5.57133 28.1193 5.12666 28.274 4.856C28.4673 4.58533 28.8347 4.45 29.376 4.45C29.956 4.45 30.6713 4.93333 31.522 5.9C32.3727 6.86667 32.798 7.89133 32.798 8.974C32.798 11.6807 31.1353 18.5247 27.81 29.506C26.1473 34.842 25.316 38.032 25.316 39.076C25.316 40.12 25.8187 40.642 26.824 40.642C31.1933 40.642 35.988 39.9267 41.208 38.496C42.8707 38.032 43.8567 37.8 44.166 37.8C44.514 37.8 44.746 37.8773 44.862 38.032C44.978 38.148 45.036 38.3993 45.036 38.786C45.036 40.41 43.0447 41.9373 39.062 43.368C35.118 44.7987 31.0967 45.514 26.998 45.514C25.142 45.514 23.518 44.9727 22.126 43.89C20.7727 42.8073 20.096 41.5313 20.096 40.062C20.096 38.554 21.4107 33.1987 24.04 23.996C26.708 14.7933 28.042 8.858 28.042 6.19ZM57.3841 8.626C57.3841 7.85266 57.6934 7.118 58.3121 6.422C58.9308 5.726 59.5494 5.378 60.1681 5.378C60.8254 5.378 61.5988 6.17066 62.4881 7.756C63.3774 9.30267 63.8221 10.598 63.8221 11.642C63.8221 12.0287 63.6481 12.3767 63.3001 12.686C62.9521 12.9953 62.5848 13.15 62.1981 13.15C61.2701 13.15 60.2261 12.5893 59.0661 11.468C57.9448 10.3467 57.3841 9.39933 57.3841 8.626ZM57.0941 16.862C57.8288 16.862 58.5248 17.3067 59.1821 18.196C59.8394 19.0853 60.1681 19.9553 60.1681 20.806C60.1681 21.6567 59.6074 24.2087 58.4861 28.462C57.3648 32.6767 55.9534 37.4133 54.2521 42.672C53.5948 44.6053 52.7634 45.572 51.7581 45.572C51.2168 45.572 50.7528 45.3593 50.3661 44.934C49.9794 44.47 49.7861 43.9673 49.7861 43.426C49.7861 42.846 49.9214 41.9567 50.1921 40.758C50.5014 39.5207 50.9268 37.8967 51.4681 35.886C52.0481 33.8367 52.4928 32.174 52.8021 30.898C53.1501 29.622 53.4981 28.1913 53.8461 26.606C54.1941 24.982 54.4648 23.6867 54.6581 22.72C54.8901 21.7147 55.1414 20.7093 55.4121 19.704C55.9534 17.8093 56.5141 16.862 57.0941 16.862ZM66.2744 45.63C65.7331 45.63 65.0951 45.224 64.3604 44.412C63.6258 43.5613 63.2584 42.7687 63.2584 42.034C63.2584 41.2993 63.8578 38.786 65.0564 34.494C66.2938 30.202 67.5118 25.04 68.7104 19.008C69.9478 12.9373 70.5664 7.38866 70.5664 2.362C70.5664 1.202 70.9918 0.622 71.8424 0.622C72.4611 0.622 73.2151 1.202 74.1044 2.362C74.9938 3.48333 75.4384 4.58533 75.4384 5.668C75.4384 10.424 74.3944 17.21 72.3064 26.026C76.9078 19.8007 81.0838 16.688 84.8344 16.688C86.6518 16.688 88.1791 17.5773 89.4164 19.356C90.6924 21.1347 91.3304 23.2613 91.3304 25.736C91.3304 28.172 90.6151 30.9753 89.1844 34.146C87.7924 37.3167 85.8978 40.0427 83.5004 42.324C81.1031 44.5667 78.5898 45.688 75.9604 45.688C73.3311 45.688 70.7404 44.354 68.1884 41.686L68.1304 41.744C67.2798 44.3347 66.6611 45.63 66.2744 45.63ZM75.4964 41.164C78.0098 41.164 80.4651 39.4627 82.8624 36.06C85.2984 32.6187 86.5164 29.0033 86.5164 25.214C86.5164 22.9327 85.8204 21.792 84.4284 21.792C82.1858 21.792 79.6724 23.358 76.8884 26.49C74.1431 29.622 71.7651 33.3533 69.7544 37.684C71.5718 40.004 73.4858 41.164 75.4964 41.164ZM103.185 6.596C103.185 5.93866 103.262 5.494 103.417 5.262C103.61 4.99133 103.939 4.856 104.403 4.856C104.906 4.856 105.756 5.378 106.955 6.422C108.154 7.466 108.792 8.394 108.869 9.206C109.024 10.598 109.758 13.0727 111.073 16.63C112.388 20.1487 113.896 23.7253 115.597 27.36C117.762 24.808 120.488 21.4247 123.775 17.21C127.062 12.9567 129.498 9.94067 131.083 8.162C132.668 6.38333 133.809 5.494 134.505 5.494C135.201 5.494 135.936 5.88067 136.709 6.654C137.482 7.42733 137.869 8.162 137.869 8.858C137.869 9.554 137.792 10.3467 137.637 11.236C137.482 12.1253 137.212 13.3047 136.825 14.774C136.477 16.2047 136.148 17.4613 135.839 18.544C135.568 19.588 135.104 21.2313 134.447 23.474C133.79 25.7167 133.287 27.5147 132.939 28.868C132.591 30.1827 132.185 31.8067 131.721 33.74C131.257 35.6347 130.87 37.2007 130.561 38.438C130.29 39.6367 130 40.816 129.691 41.976C129.111 44.2187 128.55 45.34 128.009 45.34C127.506 45.34 127.004 44.876 126.501 43.948C125.998 43.02 125.747 41.7827 125.747 40.236C125.747 38.6507 126.404 35.0547 127.719 29.448C129.072 23.8413 130.522 18.9307 132.069 14.716C124.954 23.6093 120.566 28.926 118.903 30.666C117.279 32.406 115.926 33.276 114.843 33.276C113.799 33.276 112.813 32.6767 111.885 31.478C110.493 29.4673 108.618 24.7113 106.259 17.21C105.602 21.27 104.867 24.75 104.055 27.65C103.282 30.5113 102.76 32.4253 102.489 33.392C102.257 34.32 102.044 35.0933 101.851 35.712C101.696 36.3307 101.503 37.0653 101.271 37.916C101.039 38.728 100.826 39.4047 100.633 39.946C100.478 40.4873 100.304 41.0867 100.111 41.744C99.9177 42.3627 99.7437 42.8653 99.5891 43.252C99.4731 43.6387 99.3377 44.006 99.1831 44.354C98.8737 45.0113 98.6417 45.34 98.4871 45.34C98.0231 45.34 97.4431 44.8373 96.7471 43.832C96.0511 42.8267 95.7031 41.86 95.7031 40.932C95.7031 40.004 96.9404 34.668 99.4151 24.924C101.928 15.18 103.185 9.07067 103.185 6.596ZM155.447 16.862C157.187 16.862 158.791 17.7513 160.261 19.53C161.73 21.27 162.465 22.8553 162.465 24.286C162.465 25.678 161.981 27.1087 161.015 28.578C161.479 29.158 161.711 29.6607 161.711 30.086C161.711 31.1687 161.459 33.0247 160.957 35.654C160.493 38.2833 160.203 40.004 160.087 40.816C160.009 41.628 159.932 42.2853 159.855 42.788C159.777 43.252 159.681 43.716 159.565 44.18C159.41 45.1467 159.062 45.63 158.521 45.63C157.825 45.63 157.245 45.0307 156.781 43.832C156.355 42.5947 156.104 41.0093 156.027 39.076C152.585 43.4453 149.395 45.63 146.457 45.63C144.678 45.63 142.919 44.876 141.179 43.368C139.477 41.8213 138.627 40.236 138.627 38.612C138.627 36.292 139.477 33.4307 141.179 30.028C142.88 26.5867 145.084 23.532 147.791 20.864C150.497 18.196 153.049 16.862 155.447 16.862ZM158.115 27.07C158.115 23.474 157.399 21.676 155.969 21.676C154.461 21.676 152.701 22.7587 150.691 24.924C148.68 27.0507 146.979 29.4673 145.587 32.174C144.195 34.8807 143.499 37.0267 143.499 38.612C143.499 39.2693 143.769 39.8107 144.311 40.236C144.852 40.6227 145.49 40.816 146.225 40.816C148.042 40.816 150.091 39.598 152.373 37.162C154.654 34.6873 156.239 31.6907 157.129 28.172C157.245 27.592 157.573 27.244 158.115 27.128V27.07ZM172.89 35.538C176.602 29.2353 179.618 24.5567 181.938 21.502C184.297 18.4087 186.211 16.862 187.68 16.862C189.188 16.862 190.6 17.6547 191.914 19.24C193.268 20.8253 193.944 22.5073 193.944 24.286C193.944 27.07 193.306 30.4727 192.03 34.494C189.71 41.918 187.622 45.63 185.766 45.63C184.916 45.63 184.49 45.05 184.49 43.89C184.49 43.078 184.896 41.4347 185.708 38.96C186.559 36.4467 187.332 33.9913 188.028 31.594C188.763 29.158 189.13 27.3407 189.13 26.142C189.13 24.9047 188.937 23.996 188.55 23.416C188.202 22.836 187.835 22.546 187.448 22.546C187.1 22.546 186.733 22.662 186.346 22.894C185.96 23.126 185.515 23.5127 185.012 24.054C184.548 24.5953 184.104 25.1367 183.678 25.678C183.253 26.1807 182.712 26.9153 182.054 27.882C181.436 28.8487 180.914 29.68 180.488 30.376C180.063 31.0333 179.444 32 178.632 33.276C177.82 34.552 177.202 35.5187 176.776 36.176C176.351 36.8333 175.79 37.7227 175.094 38.844C174.398 39.9653 173.838 40.8353 173.412 41.454C173.026 42.0727 172.581 42.7493 172.078 43.484C171.112 44.9147 170.338 45.63 169.758 45.63C169.217 45.63 168.579 45.2047 167.844 44.354C167.11 43.4647 166.742 42.6913 166.742 42.034C166.742 41.8407 166.878 41.3187 167.148 40.468C167.883 38.2253 168.695 35.4607 169.584 32.174C170.474 28.8487 170.957 25.0787 171.034 20.864C171.15 18.0413 171.556 16.63 172.252 16.63C173.103 16.63 173.954 17.0747 174.804 17.964C175.655 18.8533 176.08 19.8393 176.08 20.922C176.08 21.966 175.752 24.0153 175.094 27.07C174.476 30.086 173.741 32.9087 172.89 35.538ZM213.56 16.862C215.3 16.862 216.905 17.7513 218.374 19.53C219.843 21.27 220.578 22.8553 220.578 24.286C220.578 25.678 220.095 27.1087 219.128 28.578C219.592 29.158 219.824 29.6607 219.824 30.086C219.824 31.1687 219.573 33.0247 219.07 35.654C218.606 38.2833 218.316 40.004 218.2 40.816C218.123 41.628 218.045 42.2853 217.968 42.788C217.891 43.252 217.794 43.716 217.678 44.18C217.523 45.1467 217.175 45.63 216.634 45.63C215.938 45.63 215.358 45.0307 214.894 43.832C214.469 42.5947 214.217 41.0093 214.14 39.076C210.699 43.4453 207.509 45.63 204.57 45.63C202.791 45.63 201.032 44.876 199.292 43.368C197.591 41.8213 196.74 40.236 196.74 38.612C196.74 36.292 197.591 33.4307 199.292 30.028C200.993 26.5867 203.197 23.532 205.904 20.864C208.611 18.196 211.163 16.862 213.56 16.862ZM216.228 27.07C216.228 23.474 215.513 21.676 214.082 21.676C212.574 21.676 210.815 22.7587 208.804 24.924C206.793 27.0507 205.092 29.4673 203.7 32.174C202.308 34.8807 201.612 37.0267 201.612 38.612C201.612 39.2693 201.883 39.8107 202.424 40.236C202.965 40.6227 203.603 40.816 204.338 40.816C206.155 40.816 208.205 39.598 210.486 37.162C212.767 34.6873 214.353 31.6907 215.242 28.172C215.358 27.592 215.687 27.244 216.228 27.128V27.07ZM248.287 29.97C248.287 31.5167 247.611 33.276 246.257 35.248C245.213 37.6067 244.092 41.0093 242.893 45.456C241.695 49.864 240.689 53.0153 239.877 54.91C238.253 58.854 235.759 60.826 232.395 60.826C229.65 60.826 227.33 60.072 225.435 58.564C223.579 57.0947 222.651 55.6253 222.651 54.156C222.651 53.5373 222.845 52.9187 223.231 52.3C223.579 51.6813 223.947 51.372 224.333 51.372C224.759 51.372 225.223 51.662 225.725 52.242C226.228 52.822 226.692 53.4407 227.117 54.098C227.581 54.794 228.258 55.432 229.147 56.012C230.075 56.592 230.965 56.882 231.815 56.882C232.666 56.882 233.304 56.7467 233.729 56.476C234.155 56.244 234.561 55.838 234.947 55.258C235.334 54.7167 235.663 54.156 235.933 53.576C236.204 53.0347 236.494 52.242 236.803 51.198C237.151 50.1927 237.422 49.3227 237.615 48.588C237.809 47.8533 238.079 46.8287 238.427 45.514C238.775 44.1607 239.065 43.078 239.297 42.266C236.281 44.5087 233.826 45.63 231.931 45.63C230.037 45.63 228.393 44.876 227.001 43.368C225.609 41.8213 224.913 40.0427 224.913 38.032C224.913 35.9827 225.667 33.276 227.175 29.912C228.722 26.548 230.791 23.532 233.381 20.864C235.972 18.196 238.505 16.862 240.979 16.862C242.565 16.862 243.899 17.4613 244.981 18.66C246.76 20.632 247.649 23.4353 247.649 27.07C247.649 27.534 247.63 27.8627 247.591 28.056C248.055 28.7133 248.287 29.3513 248.287 29.97ZM229.611 38.612C229.611 39.2693 229.824 39.8107 230.249 40.236C230.675 40.6227 231.216 40.816 231.873 40.816C233.807 40.816 236.088 39.6753 238.717 37.394C241.347 35.074 243.203 32.3867 244.285 29.332C244.131 28.8293 243.995 28.056 243.879 27.012C243.763 25.968 243.647 25.1367 243.531 24.518C243.415 23.8993 243.164 23.2807 242.777 22.662C242.391 22.0047 241.888 21.676 241.269 21.676C239.761 21.676 238.06 22.7587 236.165 24.924C234.271 27.0893 232.705 29.506 231.467 32.174C230.23 34.842 229.611 36.988 229.611 38.612ZM275.989 26.49C275.989 28.5393 274.867 30.2213 272.625 31.536C270.421 32.812 267.907 33.45 265.085 33.45C262.301 33.45 259.768 33.1407 257.487 32.522C256.945 34.2233 256.675 35.7507 256.675 37.104C256.675 38.4187 257.081 39.4433 257.893 40.178C258.743 40.9127 260.116 41.28 262.011 41.28C263.944 41.28 265.916 40.9513 267.927 40.294C269.976 39.598 271.097 39.25 271.291 39.25C272.296 39.25 272.799 39.6367 272.799 40.41C272.799 41.454 271.619 42.5947 269.261 43.832C266.902 45.0307 264.601 45.63 262.359 45.63C259.343 45.63 256.887 44.7407 254.993 42.962C253.098 41.1447 252.151 38.8633 252.151 36.118C252.151 33.3727 252.885 30.5113 254.355 27.534C255.824 24.518 257.719 21.9853 260.039 19.936C262.359 17.8867 264.659 16.862 266.941 16.862C269.222 16.862 271.291 17.9447 273.147 20.11C275.041 22.2753 275.989 24.402 275.989 26.49ZM267.231 21.444C265.8 21.444 264.311 22.198 262.765 23.706C261.218 25.1753 259.903 27.012 258.821 29.216C260.367 29.564 262.127 29.738 264.099 29.738C266.071 29.738 267.791 29.4287 269.261 28.81C270.73 28.1527 271.465 27.302 271.465 26.258C271.465 25.214 270.981 24.1507 270.015 23.068C269.087 21.9853 268.159 21.444 267.231 21.444ZM316.484 16.862C317.644 16.862 318.669 17.674 319.558 19.298C320.486 20.8833 320.95 22.7007 320.95 24.75C320.95 26.7607 320.583 29.39 319.848 32.638C319.152 35.886 318.205 38.8633 317.006 41.57C315.807 44.2767 314.628 45.63 313.468 45.63C312.656 45.63 312.25 45.108 312.25 44.064C312.25 42.9813 312.907 40.3713 314.222 36.234C315.575 32.058 316.252 28.752 316.252 26.316C316.252 23.8413 315.865 22.604 315.092 22.604C314.125 22.604 313.004 23.4547 311.728 25.156C310.491 26.8573 309.157 28.9067 307.726 31.304C306.295 33.7013 305.522 34.9967 305.406 35.19C305.29 35.3447 305.135 35.5767 304.942 35.886C304.787 36.1953 304.594 36.524 304.362 36.872C304.169 37.22 303.627 38.264 302.738 40.004C301.887 41.744 301.133 43.1167 300.476 44.122C299.819 45.0887 299.239 45.572 298.736 45.572C298.272 45.572 297.75 45.2627 297.17 44.644C296.59 44.0253 296.3 43.4453 296.3 42.904C296.3 42.3627 296.648 41.2413 297.344 39.54C299.355 34.5133 300.36 29.8347 300.36 25.504C300.36 24.692 300.186 24.0153 299.838 23.474C299.49 22.894 299.103 22.604 298.678 22.604C298.253 22.604 297.808 22.7973 297.344 23.184C296.88 23.532 296.3 24.1893 295.604 25.156C294.908 26.084 294.289 26.9733 293.748 27.824C293.207 28.6747 292.375 30.0087 291.254 31.826C290.171 33.6047 289.34 34.9387 288.76 35.828C288.219 36.6787 287.581 37.684 286.846 38.844C286.111 39.9653 285.531 40.8353 285.106 41.454C284.719 42.0727 284.275 42.7493 283.772 43.484C282.728 44.9147 281.955 45.63 281.452 45.63C280.988 45.63 280.369 45.2047 279.596 44.354C278.823 43.4647 278.436 42.8073 278.436 42.382C278.436 41.918 278.513 41.3573 278.668 40.7C278.823 40.0427 278.977 39.4047 279.132 38.786C279.325 38.1673 279.596 37.2587 279.944 36.06C280.331 34.8227 280.756 33.392 281.22 31.768C281.723 30.1053 282.09 27.8433 282.322 24.982C282.593 22.082 282.786 19.9747 282.902 18.66C283.018 17.3067 283.347 16.63 283.888 16.63C284.739 16.63 285.57 17.0747 286.382 17.964C287.233 18.8533 287.658 19.7427 287.658 20.632C287.658 24.0347 286.382 29.6413 283.83 37.452C288.161 29.332 290.887 24.518 292.008 23.01C293.129 21.502 294.096 20.284 294.908 19.356C296.416 17.6933 297.943 16.862 299.49 16.862C300.418 16.862 301.52 17.674 302.796 19.298C304.111 20.8833 304.768 22.488 304.768 24.112C304.768 25.736 304.536 27.7467 304.072 30.144C308.635 21.2893 312.772 16.862 316.484 16.862ZM348.262 26.49C348.262 28.5393 347.141 30.2213 344.898 31.536C342.694 32.812 340.181 33.45 337.358 33.45C334.574 33.45 332.042 33.1407 329.76 32.522C329.219 34.2233 328.948 35.7507 328.948 37.104C328.948 38.4187 329.354 39.4433 330.166 40.178C331.017 40.9127 332.39 41.28 334.284 41.28C336.218 41.28 338.19 40.9513 340.2 40.294C342.25 39.598 343.371 39.25 343.564 39.25C344.57 39.25 345.072 39.6367 345.072 40.41C345.072 41.454 343.893 42.5947 341.534 43.832C339.176 45.0307 336.875 45.63 334.632 45.63C331.616 45.63 329.161 44.7407 327.266 42.962C325.372 41.1447 324.424 38.8633 324.424 36.118C324.424 33.3727 325.159 30.5113 326.628 27.534C328.098 24.518 329.992 21.9853 332.312 19.936C334.632 17.8867 336.933 16.862 339.214 16.862C341.496 16.862 343.564 17.9447 345.42 20.11C347.315 22.2753 348.262 24.402 348.262 26.49ZM339.504 21.444C338.074 21.444 336.585 22.198 335.038 23.706C333.492 25.1753 332.177 27.012 331.094 29.216C332.641 29.564 334.4 29.738 336.372 29.738C338.344 29.738 340.065 29.4287 341.534 28.81C343.004 28.1527 343.738 27.302 343.738 26.258C343.738 25.214 343.255 24.1507 342.288 23.068C341.36 21.9853 340.432 21.444 339.504 21.444ZM356.916 35.538C360.628 29.2353 363.644 24.5567 365.964 21.502C368.322 18.4087 370.236 16.862 371.706 16.862C373.214 16.862 374.625 17.6547 375.94 19.24C377.293 20.8253 377.97 22.5073 377.97 24.286C377.97 27.07 377.332 30.4727 376.056 34.494C373.736 41.918 371.648 45.63 369.792 45.63C368.941 45.63 368.516 45.05 368.516 43.89C368.516 43.078 368.922 41.4347 369.734 38.96C370.584 36.4467 371.358 33.9913 372.054 31.594C372.788 29.158 373.156 27.3407 373.156 26.142C373.156 24.9047 372.962 23.996 372.576 23.416C372.228 22.836 371.86 22.546 371.474 22.546C371.126 22.546 370.758 22.662 370.372 22.894C369.985 23.126 369.54 23.5127 369.038 24.054C368.574 24.5953 368.129 25.1367 367.704 25.678C367.278 26.1807 366.737 26.9153 366.08 27.882C365.461 28.8487 364.939 29.68 364.514 30.376C364.088 31.0333 363.47 32 362.658 33.276C361.846 34.552 361.227 35.5187 360.802 36.176C360.376 36.8333 359.816 37.7227 359.12 38.844C358.424 39.9653 357.863 40.8353 357.438 41.454C357.051 42.0727 356.606 42.7493 356.104 43.484C355.137 44.9147 354.364 45.63 353.784 45.63C353.242 45.63 352.604 45.2047 351.87 44.354C351.135 43.4647 350.768 42.6913 350.768 42.034C350.768 41.8407 350.903 41.3187 351.174 40.468C351.908 38.2253 352.72 35.4607 353.61 32.174C354.499 28.8487 354.982 25.0787 355.06 20.864C355.176 18.0413 355.582 16.63 356.278 16.63C357.128 16.63 357.979 17.0747 358.83 17.964C359.68 18.8533 360.106 19.8393 360.106 20.922C360.106 21.966 359.777 24.0153 359.12 27.07C358.501 30.086 357.766 32.9087 356.916 35.538ZM388.653 39.83C388.653 40.5647 389.079 40.932 389.929 40.932C391.399 40.932 393.177 40.526 395.265 39.714C397.392 38.8633 398.571 38.438 398.803 38.438C399.499 38.438 399.847 38.8053 399.847 39.54C399.847 40.6613 398.687 41.9567 396.367 43.426C394.086 44.8953 391.998 45.63 390.103 45.63C388.247 45.63 386.701 45.1273 385.463 44.122C384.226 43.078 383.607 42.0147 383.607 40.932C383.607 39.8493 383.839 38.4767 384.303 36.814C384.767 35.1127 385.425 32.8893 386.275 30.144C387.165 27.36 387.861 25.0593 388.363 23.242C386.546 23.6673 385.328 23.88 384.709 23.88C384.091 23.88 383.472 23.5707 382.853 22.952C382.273 22.2947 381.983 21.676 381.983 21.096C381.983 20.168 384.497 19.2787 389.523 18.428C390.219 15.2187 390.567 12.3767 390.567 9.902C390.567 8.742 390.954 8.162 391.727 8.162C392.385 8.162 393.197 8.58733 394.163 9.438C395.13 10.25 395.613 11.178 395.613 12.222C395.613 13.266 395.285 15.1027 394.627 17.732C396.831 17.5387 398.591 17.442 399.905 17.442C402.225 17.442 403.385 17.9447 403.385 18.95C403.385 19.53 402.747 20.0133 401.471 20.4C400.234 20.7867 397.605 21.386 393.583 22.198C392.771 25.2527 391.747 28.752 390.509 32.696C389.272 36.6013 388.653 38.9793 388.653 39.83Z" fill="#363636"/>
<rect width="70" height="45" transform="translate(415.5 9)" fill="white"/>
<path d="M426.061 16.2131C424.278 15.8969 422.526 16.1528 420.768 16.4569C420.493 16.5034 420.268 16.7403 420.282 16.9625C420.329 17.6318 420.513 18.2736 420.563 18.9309C420.664 20.2695 420.765 21.6081 420.866 22.9459C420.945 24.0201 421.016 25.096 421.147 26.1676C421.281 27.2789 421.262 28.4176 421.286 29.5332C421.311 30.6754 421.313 31.8194 421.308 32.9625C421.289 37.808 421.123 42.6612 421.515 47.5015C421.543 47.846 421.886 48.0244 422.297 47.9744C422.384 47.9641 422.468 47.9546 422.555 47.9451C422.601 47.9399 422.645 47.9348 422.69 47.9305C422.88 47.9098 422.555 47.9443 422.715 47.927C422.906 47.9072 423.098 47.8865 423.289 47.8659C423.43 47.8512 423.132 47.8822 423.278 47.8667C423.319 47.8624 423.361 47.8581 423.403 47.8538C423.492 47.8443 423.581 47.8357 423.668 47.8262C423.887 47.8047 424.104 47.7832 424.322 47.7625C424.827 47.7151 425.333 47.6712 425.84 47.6316C428.648 47.4067 431.472 47.2792 434.294 47.2947C437.435 47.312 440.609 47.4946 443.653 48.126C445.02 48.4103 446.271 48.7695 447.478 49.3182C448.519 49.792 449.43 50.407 450.056 51.1823C450.095 51.2306 450.133 51.2805 450.171 51.3296C450.618 51.9318 451.799 51.3856 451.35 50.7826C449.939 48.8866 447.383 47.8185 444.808 47.1931C441.764 46.4523 438.523 46.2404 435.355 46.1947C430.925 46.1301 426.402 46.3851 422.039 47.0165C422.015 47.0199 421.992 47.0234 421.968 47.0268C422.23 47.1853 422.49 47.343 422.752 47.5015C422.181 42.9937 422.338 38.4532 422.352 33.9299C422.36 31.6531 422.342 29.3755 422.219 27.1014C422.153 25.9032 422.007 24.7067 421.91 23.5102C421.791 22.0793 421.691 20.6477 421.604 19.2151C421.558 18.4657 421.649 17.7128 421.605 16.9625C421.443 17.1305 421.28 17.3002 421.118 17.4682C422.711 17.202 424.277 17.0538 425.908 17.1176C426.561 17.1434 426.7 16.3259 426.061 16.2131Z" fill="#AF1C9C"/>
<path d="M451.343 50.5337C451.136 50.0608 450.995 49.7446 450.654 49.3234C450.311 48.8978 449.934 48.4921 449.543 48.0924C448.699 47.2284 447.741 46.4342 446.702 45.7149C444.143 43.9421 441.044 42.7137 437.738 42.1004C432.969 41.214 428.026 41.668 423.367 42.7353C423.649 42.9592 423.932 43.1841 424.214 43.408C425.793 39.0226 426.153 34.4295 426.141 29.8889C426.135 27.7216 425.977 25.5586 425.946 23.393C425.923 21.7408 426.245 20.0903 426.454 18.4493C426.847 15.3577 427.02 11.9491 424.313 9.44149C424.152 9.74901 423.991 10.0574 423.831 10.3649C428.784 9.8498 433.863 10.2771 438.586 11.5502C443.073 12.7588 447.161 14.8055 450.547 17.4285C451.313 18.0229 452.49 17.0909 451.722 16.4956C448.242 13.7985 443.975 11.8044 439.401 10.5226C434.674 9.19771 429.401 8.65846 424.424 9.22096C424.166 9.25025 423.908 9.27437 423.649 9.3028C423.098 9.3631 423.056 9.93766 423.348 10.2064C424.66 11.4081 425.083 13.0362 425.195 14.5833C425.321 16.3259 425.053 18.0755 424.815 19.8052C424.701 20.633 424.591 21.4608 424.528 22.2921C424.464 23.1484 424.513 23.9986 424.551 24.854C424.648 27.1255 424.737 29.3979 424.704 31.6712C424.648 35.5278 424.225 39.3964 422.886 43.1169C422.743 43.5157 423.23 43.9051 423.734 43.7896C428.094 42.7904 432.779 42.3838 437.249 43.1686C440.454 43.7319 443.435 44.9345 445.936 46.6194C446.919 47.2818 447.82 48.0201 448.645 48.8057C449.022 49.1649 449.33 49.4888 449.658 49.8497C449.998 50.2253 450.309 50.482 450.696 50.8326C450.949 51.0609 451.469 50.8205 451.343 50.5337Z" fill="#AF1C9C"/>
<path d="M451.234 17.3975H451.281C451.378 17.3984 451.377 17.2804 451.281 17.2795C451.169 17.2778 451.058 17.2769 450.946 17.2761C450.844 17.2744 450.844 17.4001 450.946 17.401C450.979 17.401 451.012 17.401 451.034 17.3786C451.06 17.3519 451.06 17.3252 451.034 17.2985C451.012 17.2752 450.979 17.2752 450.946 17.2761C450.844 17.2761 450.844 17.4027 450.946 17.401C451.058 17.4001 451.169 17.3993 451.281 17.3975C451.377 17.3967 451.378 17.2778 451.281 17.2795H451.234C451.137 17.2812 451.137 17.3958 451.234 17.3975Z" fill="#AF1C9C"/>
<path d="M476.829 17.7998C477.533 17.761 478.042 17.531 478.658 17.2967C478.496 17.3579 478.704 17.2864 478.739 17.2769C478.814 17.258 478.89 17.2468 478.966 17.2356C478.828 17.2554 479.097 17.233 479.125 17.2321C479.235 17.2295 479.343 17.2364 479.452 17.2425C480.13 17.2829 480.811 17.4802 481.449 17.6508C481.288 17.4819 481.127 17.314 480.966 17.1451C480.924 17.7972 481.022 18.4536 480.981 19.104C480.897 20.4357 480.809 21.7666 480.702 23.0975C480.616 24.1657 480.539 25.2373 480.402 26.302C480.26 27.4141 480.274 28.5546 480.245 29.671C480.216 30.8149 480.208 31.9598 480.207 33.1046C480.204 37.9079 480.425 42.7361 479.815 47.523C480.071 47.3671 480.33 47.2112 480.587 47.0561C476.659 46.485 472.606 46.2541 468.62 46.2162C465.398 46.1869 462.144 46.3196 458.984 46.8425C456.305 47.2844 453.5 48.0588 451.548 49.6498C451.129 49.991 450.762 50.3751 450.452 50.7835C449.998 51.3847 451.179 51.93 451.632 51.3305C452.22 50.5535 453.081 49.9513 454.078 49.4707C455.253 48.9021 456.457 48.5524 457.793 48.2535C460.805 47.579 463.966 47.3809 467.084 47.3283C470 47.2792 472.919 47.3929 475.822 47.5945C476.826 47.6643 477.829 47.7478 478.829 47.8452C478.919 47.8538 479.007 47.8624 479.097 47.8719C479.135 47.8753 479.287 47.8917 479.096 47.871C479.178 47.8805 479.261 47.8874 479.343 47.896C479.494 47.9098 479.646 47.9244 479.797 47.9399C479.901 47.9503 480.006 47.9615 480.11 47.9718C479.936 47.9537 480.065 47.9675 480.182 47.9804C480.209 47.983 480.235 47.9864 480.262 47.989C480.668 48.0364 481.006 47.8633 481.034 47.523C481.406 42.9988 481.292 38.4635 481.256 33.935C481.238 31.6566 481.247 29.379 481.367 27.1022C481.429 25.9273 481.571 24.754 481.663 23.579C481.774 22.1577 481.879 20.7364 481.989 19.3142C482.044 18.5828 482.235 17.8859 482.287 17.1451C482.304 16.9031 482.07 16.7127 481.802 16.6395C480.744 16.3509 479.455 15.9856 478.331 16.2622C477.696 16.4198 477.243 16.7859 476.675 16.8936C476.045 17.015 476.171 17.8351 476.829 17.7998Z" fill="#AF1C9C"/>
<path d="M451.304 50.7705C451.455 50.5561 451.703 50.3553 451.831 50.1469C451.988 49.8928 452.179 49.6473 452.386 49.4173C452.807 48.9538 453.267 48.5317 453.785 48.1312C454.982 47.2051 456.396 46.4936 457.856 45.857C461.174 44.4098 464.942 43.5131 468.691 43.1341C471.99 42.8007 475.669 42.7749 478.778 43.8413C479.298 44.0188 479.977 43.7302 479.79 43.2237C478.181 38.8658 477.878 34.3097 477.933 29.7933C477.959 27.6716 478.161 25.5474 478.154 23.4266C478.149 21.7709 477.816 20.1213 477.608 18.476C477.281 15.8745 476.959 12.5977 479.321 10.489C479.747 10.1082 479.423 9.62753 478.839 9.56637C468.93 8.51889 458.467 10.9472 451.003 16.2828C450.794 16.4327 450.588 16.5869 450.383 16.7411C449.605 17.3286 450.782 18.2598 451.558 17.674C458.786 12.2161 468.951 9.64476 478.839 10.6475C478.678 10.3399 478.519 10.0324 478.358 9.72487C475.39 12.4047 475.819 16.1175 476.277 19.4158C476.5 21.0275 476.745 22.6298 476.671 24.2544C476.568 26.5096 476.481 28.7639 476.5 31.02C476.534 35.2211 476.968 39.4679 478.462 43.514C478.799 43.3089 479.137 43.1031 479.474 42.8972C476.174 41.7644 472.449 41.6507 468.921 41.9781C465.038 42.3399 461.207 43.2271 457.724 44.645C456.009 45.3428 454.378 46.2266 452.996 47.2964C452.386 47.7702 451.837 48.3017 451.371 48.8694C451.16 49.1261 450.988 49.4018 450.82 49.6765C450.656 49.9427 450.63 50.3226 450.584 50.6146C450.533 50.9282 451.129 51.0204 451.304 50.7705Z" fill="#AF1C9C"/>
<path d="M451.036 17.4604L450.987 17.4596C450.891 17.4587 450.891 17.5776 450.987 17.5785C451.099 17.5793 451.213 17.581 451.326 17.5819C451.428 17.5828 451.428 17.457 451.326 17.4561C451.283 17.4561 451.252 17.4604 451.226 17.4906C451.212 17.5052 451.212 17.5328 451.226 17.5474C451.252 17.5776 451.283 17.5828 451.326 17.5819C451.428 17.581 451.428 17.4544 451.326 17.4561C451.213 17.4579 451.099 17.4587 450.987 17.4596C450.891 17.4613 450.891 17.5793 450.987 17.5785L451.036 17.5776C451.132 17.5767 451.132 17.4613 451.036 17.4604Z" fill="#AF1C9C"/>
<path d="M450.833 16.9711C450.439 21.7339 451.479 26.4941 451.589 31.2517C451.644 33.6344 451.628 36.0326 451.479 38.4118C451.379 39.9977 451.198 41.5852 451.043 43.1685C450.907 44.5339 450.773 45.9001 450.683 47.2672C450.612 48.3543 450.494 49.4569 450.592 50.5457C450.632 50.9833 451.505 50.9756 451.445 50.5457C451.268 49.2432 451.391 47.9029 451.503 46.5996C451.633 45.0697 451.793 43.5381 452.023 42.0142C452.664 37.7795 452.709 33.5207 452.385 29.2644C452.072 25.1632 451.551 21.0706 451.198 16.9711C451.181 16.785 450.849 16.7842 450.833 16.9711Z" fill="#AF1C9C"/>
<path d="M418.471 20.4409C418.947 20.5563 419.468 20.5357 419.962 20.552C420.365 20.5641 420.798 20.5865 421.196 20.5141C421.713 20.422 421.713 19.7793 421.196 19.6872C420.798 19.6148 420.365 19.6372 419.962 19.6493C419.468 19.6656 418.947 19.645 418.471 19.7604C418.048 19.8638 418.048 20.3375 418.471 20.4409Z" fill="#AF1C9C"/>
<path d="M481.805 20.6795C482.12 20.701 482.414 20.5753 482.588 20.3737C482.473 20.5072 482.341 20.5572 482.145 20.5779C482.189 20.5736 482.234 20.5761 482.277 20.5779C482.565 20.583 482.822 20.6244 483.082 20.4952C483.455 20.3108 483.455 19.8905 483.082 19.7061C482.762 19.5476 482.159 19.5872 481.813 19.7147C481.7 19.7552 481.624 19.8448 481.562 19.924C481.674 19.7785 481.632 19.8526 481.583 19.8948C481.541 19.9309 481.489 19.9576 481.448 19.9947C481.146 20.2686 481.358 20.6502 481.805 20.6795Z" fill="#AF1C9C"/>
<path d="M418.452 20.1006C418.474 21.13 418.677 22.1508 418.73 23.1828C418.784 24.2656 418.765 25.3501 418.713 26.4338C418.608 28.5856 418.35 30.7305 418.209 32.8806C417.898 37.6227 418.108 42.37 418.057 47.1138C418.047 48.1915 418.11 49.2691 418.105 50.3467C418.103 50.8429 419.079 50.8429 419.073 50.3467C419.047 47.977 418.741 45.6055 418.881 43.2331C418.952 42.0401 418.873 40.8324 418.873 39.6376C418.873 38.4445 418.884 37.2515 418.913 36.0593C419.013 31.6884 419.719 27.2978 419.326 22.9278C419.239 21.9665 419.151 20.9776 418.72 20.0714C418.669 19.9628 418.45 19.9714 418.452 20.1006Z" fill="#AF1C9C"/>
<path d="M418.48 50.8653C420.805 51.1082 423.154 50.9911 425.486 50.867C427.932 50.7361 430.37 50.5302 432.81 50.3571C435.19 50.1882 437.576 50.053 439.965 50.0332C441.143 50.0237 442.321 50.0478 443.497 50.109C444.108 50.1409 444.718 50.1848 445.325 50.2399C445.93 50.2951 446.493 50.4036 447.091 50.2727C447.481 50.1882 447.506 49.7954 447.197 49.6292C446.725 49.3742 446.21 49.3441 445.656 49.2872C445.05 49.2252 444.44 49.1804 443.83 49.1425C442.657 49.0727 441.48 49.0546 440.304 49.0607C437.858 49.0727 435.415 49.2235 432.982 49.4026C430.539 49.5827 428.099 49.7972 425.655 49.9694C423.267 50.1391 420.871 50.1943 418.48 50.3226C418.029 50.3467 418.051 50.8205 418.48 50.8653Z" fill="#AF1C9C"/>
<path d="M446.258 49.7679C446.202 50.1374 446.713 50.5681 447.021 50.8033C447.43 51.1151 447.875 51.4011 448.377 51.6139C449.44 52.067 450.679 52.0653 451.84 51.9214C452.886 51.7905 453.878 51.4183 454.672 50.867C455.311 50.4243 456.124 49.2967 455.431 48.6825C455.218 48.4938 454.849 48.567 454.689 48.7583C454.469 49.0227 454.58 49.369 454.424 49.6593C454.275 49.9376 454.02 50.1521 453.731 50.3424C453.114 50.7482 452.174 50.8972 451.406 50.9945C450.515 51.1082 449.566 51.0367 448.757 50.7085C448.34 50.5388 447.982 50.2968 447.631 50.0513C447.337 49.8463 446.779 49.5499 446.371 49.6498C446.3 49.6671 446.267 49.711 446.258 49.7679Z" fill="#AF1C9C"/>
<path d="M455.308 49.1072C456.262 49.0486 457.195 48.9642 458.154 48.9763C459.178 48.99 460.199 49.0676 461.223 49.096C462.448 49.1287 463.686 49.0495 464.912 49.0271C466.252 49.003 467.597 48.9806 468.939 49.0133C471.446 49.0745 473.954 49.1908 476.457 49.3182C477.689 49.3803 478.921 49.438 480.154 49.4819C480.805 49.5052 481.458 49.5224 482.111 49.5345C482.761 49.5474 483.431 49.5879 484.06 49.4328C484.571 49.3079 484.569 48.7411 484.06 48.6136C483.487 48.4715 482.884 48.4904 482.29 48.4775C481.637 48.4637 480.983 48.4405 480.331 48.4146C479.038 48.3647 477.748 48.2914 476.457 48.2242C473.89 48.089 471.33 47.977 468.755 47.9874C467.474 47.9925 466.193 47.9977 464.912 48.0261C463.639 48.0545 462.36 48.1364 461.088 48.1157C460.059 48.0985 459.034 48.0339 458.004 48.0322C457.046 48.0304 455.918 48.0494 455.099 48.493C454.787 48.6618 454.865 49.1356 455.308 49.1072Z" fill="#AF1C9C"/>
<mask id="mask0_45_350" style="mask-type:luminance" maskUnits="userSpaceOnUse" x="482" y="19" width="4" height="31">
<path d="M482.62 19.6441H485.5V49.6352H482.62V19.6441Z" fill="white"/>
</mask>
<g mask="url(#mask0_45_350)">
<path d="M482.827 19.9508C482.549 21.0396 482.734 22.2387 482.915 23.331C483.103 24.4603 483.363 25.5801 483.57 26.7077C483.994 29.0318 484.01 31.4068 484.067 33.7507C484.124 36.0981 484.315 38.454 484.229 40.8014C484.188 41.9591 484.067 43.1169 483.855 44.2626C483.752 44.8242 483.677 45.3876 483.601 45.9518C483.531 46.4712 483.412 47.001 483.392 47.523C483.379 47.8185 483.348 48.114 483.323 48.4094C483.307 48.5895 483.276 48.7652 483.345 48.9426C483.361 48.984 483.377 49.0253 483.392 49.0658C483.475 49.2803 483.385 49.1899 483.4 49.0236C483.354 49.5534 484.39 49.5499 484.436 49.0236L484.438 49.0047C484.387 49.102 484.336 49.1985 484.286 49.295C484.764 48.9125 484.641 48.1157 484.666 47.6195C484.717 46.5944 484.861 45.5383 485.046 44.5236C485.471 42.2115 485.533 39.8891 485.389 37.559C485.244 35.2022 485.236 32.8419 485.092 30.4851C485.02 29.3204 484.923 28.1532 484.73 26.9972C484.541 25.8679 484.264 24.7506 484.015 23.6299C483.883 23.0416 483.778 22.4498 483.671 21.8588C483.554 21.2248 483.545 20.5839 483.431 19.9508C483.387 19.7053 482.886 19.7191 482.827 19.9508Z" fill="#AF1C9C"/>
</g>
<path d="M418.624 20.0817C418.152 19.9395 417.644 20.2996 417.313 20.5331C416.967 20.7768 416.235 21.1679 416.305 21.5874C416.32 21.6753 416.372 21.7632 416.493 21.7838C417.043 21.8786 417.487 21.3798 417.839 21.1128C418.171 20.8613 418.687 20.5727 418.719 20.1825C418.724 20.1334 418.676 20.0972 418.624 20.0817Z" fill="#AF1C9C"/>
<mask id="mask1_45_350" style="mask-type:luminance" maskUnits="userSpaceOnUse" x="415" y="21" width="5" height="32">
<path d="M415.5 21.1877H419.565V52.943H415.5V21.1877Z" fill="white"/>
</mask>
<g mask="url(#mask1_45_350)">
<path d="M416.296 21.3514C415.671 22.1827 415.623 23.2844 415.587 24.2285C415.547 25.295 415.716 26.3726 415.801 27.4356C415.981 29.727 415.839 32.0407 415.765 34.333C415.726 35.5286 415.695 36.7251 415.661 37.9216C415.625 39.1259 415.527 40.3267 415.538 41.5318C415.553 43.3434 415.769 45.167 415.687 46.9769C415.637 48.0536 415.585 49.1304 415.566 50.2089C415.559 50.6982 415.551 51.19 415.579 51.6802C415.598 52.0187 415.597 52.4882 416.02 52.682C415.923 52.5812 415.826 52.4813 415.729 52.3814C415.734 52.4072 415.739 52.4331 415.743 52.4598C415.796 52.7466 416.205 52.8371 416.505 52.8026C416.838 52.763 416.95 52.5804 417.115 52.3728C417.302 52.1359 417.55 51.924 417.789 51.7207C418.268 51.3149 418.867 50.9988 419.354 50.5957C419.751 50.2692 419.126 49.7713 418.726 50.0978C417.885 50.7835 416.877 51.3184 416.023 51.9903C416.219 51.9498 416.414 51.9093 416.609 51.868C416.574 51.8637 416.539 51.8594 416.505 51.8559C416.648 52.0566 416.792 52.2582 416.937 52.4598C416.976 52.2444 416.99 52.0627 416.788 51.8921C416.832 51.9291 416.93 52.1342 416.888 51.9937C416.838 51.8352 416.888 52.0523 416.867 51.9007C416.853 51.7939 416.845 51.6862 416.838 51.5794C416.801 51.0221 416.814 50.463 416.828 49.9048C416.855 48.8203 416.921 47.7366 416.968 46.6512C417.006 45.7709 416.905 44.8784 416.875 43.9972C416.834 42.7886 416.823 41.5809 416.812 40.3724C416.79 37.975 416.952 35.5777 416.995 33.1813C417.031 31.1406 417.108 29.0912 416.89 27.0566C416.788 26.1142 416.702 25.1727 416.619 24.2285C416.537 23.2887 416.66 22.3575 416.625 21.4229C416.621 21.2842 416.388 21.23 416.296 21.3514Z" fill="#AF1C9C"/>
</g>
<path d="M416.224 52.9913C417.413 53.086 418.673 52.9672 419.862 52.9052C421.077 52.8431 422.291 52.7785 423.507 52.7165C425.941 52.5907 428.375 52.4693 430.81 52.3659C433.244 52.2617 435.679 52.1773 438.115 52.1238C440.54 52.0696 442.978 51.9955 445.397 52.1626C445.792 52.1902 446.113 51.8267 445.995 51.5398C445.819 51.1091 446.05 50.8326 446.353 50.4768C446.535 50.2623 446.177 49.9875 445.909 50.1245C445.267 50.4527 444.828 51.066 444.776 51.6707C444.984 51.5053 445.19 51.3417 445.397 51.178C442.974 51.3046 440.542 51.2797 438.115 51.3417C435.678 51.4037 433.244 51.5002 430.81 51.613C428.374 51.7259 425.941 51.8568 423.507 51.992C422.291 52.0601 421.077 52.1282 419.862 52.1962C418.638 52.2651 417.337 52.2806 416.141 52.5029C415.773 52.5709 415.894 52.9646 416.224 52.9913Z" fill="#AF1C9C"/>
<mask id="mask2_45_350" style="mask-type:luminance" maskUnits="userSpaceOnUse" x="444" y="51" width="12" height="3">
<path d="M444.842 51.3994H455.12V54H444.842V51.3994Z" fill="white"/>
</mask>
<g mask="url(#mask2_45_350)">
<path d="M445.029 51.8689C445.438 52.3909 446.369 52.689 447.044 52.9457C447.953 53.292 448.941 53.5495 449.923 53.7244C450.881 53.8958 451.875 53.9303 452.839 53.7666C453.62 53.6348 454.52 53.1808 454.953 52.6424C455.183 52.3565 454.666 52.055 454.372 52.2867C454.106 52.496 453.863 52.6778 453.527 52.8173C453.216 52.9482 452.744 52.9732 452.397 52.9991C451.56 53.062 450.695 52.9414 449.882 52.7958C449.011 52.639 448.186 52.3883 447.358 52.1316C446.696 51.9266 445.996 51.5622 445.285 51.5157C445.061 51.5002 444.917 51.7259 445.029 51.8689Z" fill="#AF1C9C"/>
</g>
<path d="M455.266 48.965C455.158 49.1916 455.129 49.4552 455.074 49.6938C455.004 49.9944 454.9 50.2882 454.794 50.5819C454.582 51.1711 454.346 51.75 454.199 52.353C454.151 52.5451 454.264 52.7751 454.532 52.819C454.574 52.8259 454.617 52.8294 454.659 52.8328C454.854 52.8466 455.086 52.7079 455.12 52.5546C455.253 51.9524 455.46 51.3606 455.627 50.7637C455.778 50.2244 456.036 49.5069 455.804 48.965C455.711 48.7497 455.362 48.76 455.266 48.965Z" fill="#AF1C9C"/>
<path d="M454.919 52.3952C456.133 52.5769 457.393 52.5494 458.625 52.5563C459.964 52.5623 461.303 52.5666 462.643 52.5769C465.128 52.5942 467.617 52.5907 470.101 52.651C472.276 52.7036 474.456 52.819 476.633 52.7389C477.712 52.6993 478.791 52.6097 479.855 52.4555C480.731 52.328 481.995 52.1928 482.588 51.6165C482.787 51.4226 482.655 51.1711 482.342 51.1453C481.895 51.1091 481.482 51.2185 481.052 51.3141C480.559 51.4252 480.057 51.5105 479.553 51.5811C478.489 51.7284 477.409 51.7724 476.331 51.7999C474.208 51.8542 472.085 51.7629 469.962 51.719C467.523 51.6664 465.081 51.756 462.643 51.818C461.365 51.8508 460.085 51.8801 458.806 51.905C457.516 51.93 456.192 51.9076 454.919 52.0989C454.734 52.1273 454.733 52.3676 454.919 52.3952Z" fill="#AF1C9C"/>
<path d="M483.829 48.7669C482.659 48.9116 481.923 50.3648 481.746 51.1677C481.694 51.4037 481.775 51.6346 482.051 51.7629C482.334 51.8938 482.814 51.837 482.958 51.5734C483.193 51.1401 483.316 50.6741 483.53 50.233C483.723 49.8351 484.077 49.4982 484.241 49.0951C484.328 48.8815 484.063 48.7376 483.829 48.7669Z" fill="#AF1C9C"/>
</svg>
