<svg width="384" height="61" viewBox="0 0 384 61" fill="none" xmlns="http://www.w3.org/2000/svg">
<path d="M8.042 6.19C8.042 5.57133 8.11933 5.12666 8.274 4.856C8.46733 4.58533 8.83467 4.45 9.376 4.45C9.956 4.45 10.6713 4.93333 11.522 5.9C12.3727 6.86667 12.798 7.89133 12.798 8.974C12.798 11.6807 11.1353 18.5247 7.81 29.506C6.14733 34.842 5.316 38.032 5.316 39.076C5.316 40.12 5.81867 40.642 6.824 40.642C11.1933 40.642 15.988 39.9267 21.208 38.496C22.8707 38.032 23.8567 37.8 24.166 37.8C24.514 37.8 24.746 37.8773 24.862 38.032C24.978 38.148 25.036 38.3993 25.036 38.786C25.036 40.41 23.0447 41.9373 19.062 43.368C15.118 44.7987 11.0967 45.514 6.998 45.514C5.142 45.514 3.518 44.9727 2.126 43.89C0.772667 42.8073 0.0960002 41.5313 0.0960002 40.062C0.0960002 38.554 1.41067 33.1987 4.04 23.996C6.708 14.7933 8.042 8.858 8.042 6.19ZM37.3841 8.626C37.3841 7.85266 37.6934 7.118 38.3121 6.422C38.9308 5.726 39.5494 5.378 40.1681 5.378C40.8254 5.378 41.5988 6.17066 42.4881 7.756C43.3774 9.30267 43.8221 10.598 43.8221 11.642C43.8221 12.0287 43.6481 12.3767 43.3001 12.686C42.9521 12.9953 42.5848 13.15 42.1981 13.15C41.2701 13.15 40.2261 12.5893 39.0661 11.468C37.9448 10.3467 37.3841 9.39933 37.3841 8.626ZM37.0941 16.862C37.8288 16.862 38.5248 17.3067 39.1821 18.196C39.8394 19.0853 40.1681 19.9553 40.1681 20.806C40.1681 21.6567 39.6074 24.2087 38.4861 28.462C37.3648 32.6767 35.9534 37.4133 34.2521 42.672C33.5948 44.6053 32.7634 45.572 31.7581 45.572C31.2168 45.572 30.7528 45.3593 30.3661 44.934C29.9794 44.47 29.7861 43.9673 29.7861 43.426C29.7861 42.846 29.9214 41.9567 30.1921 40.758C30.5014 39.5207 30.9268 37.8967 31.4681 35.886C32.0481 33.8367 32.4928 32.174 32.8021 30.898C33.1501 29.622 33.4981 28.1913 33.8461 26.606C34.1941 24.982 34.4648 23.6867 34.6581 22.72C34.8901 21.7147 35.1414 20.7093 35.4121 19.704C35.9534 17.8093 36.5141 16.862 37.0941 16.862ZM46.2744 45.63C45.7331 45.63 45.0951 45.224 44.3604 44.412C43.6258 43.5613 43.2584 42.7687 43.2584 42.034C43.2584 41.2993 43.8578 38.786 45.0564 34.494C46.2938 30.202 47.5118 25.04 48.7104 19.008C49.9478 12.9373 50.5664 7.38866 50.5664 2.362C50.5664 1.202 50.9918 0.622 51.8424 0.622C52.4611 0.622 53.2151 1.202 54.1044 2.362C54.9938 3.48333 55.4384 4.58533 55.4384 5.668C55.4384 10.424 54.3944 17.21 52.3064 26.026C56.9078 19.8007 61.0838 16.688 64.8344 16.688C66.6518 16.688 68.1791 17.5773 69.4164 19.356C70.6924 21.1347 71.3304 23.2613 71.3304 25.736C71.3304 28.172 70.6151 30.9753 69.1844 34.146C67.7924 37.3167 65.8978 40.0427 63.5004 42.324C61.1031 44.5667 58.5898 45.688 55.9604 45.688C53.3311 45.688 50.7404 44.354 48.1884 41.686L48.1304 41.744C47.2798 44.3347 46.6611 45.63 46.2744 45.63ZM55.4964 41.164C58.0098 41.164 60.4651 39.4627 62.8624 36.06C65.2984 32.6187 66.5164 29.0033 66.5164 25.214C66.5164 22.9327 65.8204 21.792 64.4284 21.792C62.1858 21.792 59.6724 23.358 56.8884 26.49C54.1431 29.622 51.7651 33.3533 49.7544 37.684C51.5718 40.004 53.4858 41.164 55.4964 41.164ZM83.1851 6.596C83.1851 5.93866 83.2624 5.494 83.4171 5.262C83.6104 4.99133 83.9391 4.856 84.4031 4.856C84.9057 4.856 85.7564 5.378 86.9551 6.422C88.1537 7.466 88.7917 8.394 88.8691 9.206C89.0237 10.598 89.7584 13.0727 91.0731 16.63C92.3877 20.1487 93.8957 23.7253 95.5971 27.36C97.7624 24.808 100.488 21.4247 103.775 17.21C107.062 12.9567 109.498 9.94067 111.083 8.162C112.668 6.38333 113.809 5.494 114.505 5.494C115.201 5.494 115.936 5.88067 116.709 6.654C117.482 7.42733 117.869 8.162 117.869 8.858C117.869 9.554 117.792 10.3467 117.637 11.236C117.482 12.1253 117.212 13.3047 116.825 14.774C116.477 16.2047 116.148 17.4613 115.839 18.544C115.568 19.588 115.104 21.2313 114.447 23.474C113.79 25.7167 113.287 27.5147 112.939 28.868C112.591 30.1827 112.185 31.8067 111.721 33.74C111.257 35.6347 110.87 37.2007 110.561 38.438C110.29 39.6367 110 40.816 109.691 41.976C109.111 44.2187 108.55 45.34 108.009 45.34C107.506 45.34 107.004 44.876 106.501 43.948C105.998 43.02 105.747 41.7827 105.747 40.236C105.747 38.6507 106.404 35.0547 107.719 29.448C109.072 23.8413 110.522 18.9307 112.069 14.716C104.954 23.6093 100.566 28.926 98.9031 30.666C97.2791 32.406 95.9257 33.276 94.8431 33.276C93.7991 33.276 92.8131 32.6767 91.8851 31.478C90.4931 29.4673 88.6177 24.7113 86.2591 17.21C85.6017 21.27 84.8671 24.75 84.0551 27.65C83.2817 30.5113 82.7597 32.4253 82.4891 33.392C82.2571 34.32 82.0444 35.0933 81.8511 35.712C81.6964 36.3307 81.5031 37.0653 81.2711 37.916C81.0391 38.728 80.8264 39.4047 80.6331 39.946C80.4784 40.4873 80.3044 41.0867 80.1111 41.744C79.9177 42.3627 79.7437 42.8653 79.5891 43.252C79.4731 43.6387 79.3377 44.006 79.1831 44.354C78.8737 45.0113 78.6417 45.34 78.4871 45.34C78.0231 45.34 77.4431 44.8373 76.7471 43.832C76.0511 42.8267 75.7031 41.86 75.7031 40.932C75.7031 40.004 76.9404 34.668 79.4151 24.924C81.9284 15.18 83.1851 9.07067 83.1851 6.596ZM135.447 16.862C137.187 16.862 138.791 17.7513 140.261 19.53C141.73 21.27 142.465 22.8553 142.465 24.286C142.465 25.678 141.981 27.1087 141.015 28.578C141.479 29.158 141.711 29.6607 141.711 30.086C141.711 31.1687 141.459 33.0247 140.957 35.654C140.493 38.2833 140.203 40.004 140.087 40.816C140.009 41.628 139.932 42.2853 139.855 42.788C139.777 43.252 139.681 43.716 139.565 44.18C139.41 45.1467 139.062 45.63 138.521 45.63C137.825 45.63 137.245 45.0307 136.781 43.832C136.355 42.5947 136.104 41.0093 136.027 39.076C132.585 43.4453 129.395 45.63 126.457 45.63C124.678 45.63 122.919 44.876 121.179 43.368C119.477 41.8213 118.627 40.236 118.627 38.612C118.627 36.292 119.477 33.4307 121.179 30.028C122.88 26.5867 125.084 23.532 127.791 20.864C130.497 18.196 133.049 16.862 135.447 16.862ZM138.115 27.07C138.115 23.474 137.399 21.676 135.969 21.676C134.461 21.676 132.701 22.7587 130.691 24.924C128.68 27.0507 126.979 29.4673 125.587 32.174C124.195 34.8807 123.499 37.0267 123.499 38.612C123.499 39.2693 123.769 39.8107 124.311 40.236C124.852 40.6227 125.49 40.816 126.225 40.816C128.042 40.816 130.091 39.598 132.373 37.162C134.654 34.6873 136.239 31.6907 137.129 28.172C137.245 27.592 137.573 27.244 138.115 27.128V27.07ZM152.89 35.538C156.602 29.2353 159.618 24.5567 161.938 21.502C164.297 18.4087 166.211 16.862 167.68 16.862C169.188 16.862 170.6 17.6547 171.914 19.24C173.268 20.8253 173.944 22.5073 173.944 24.286C173.944 27.07 173.306 30.4727 172.03 34.494C169.71 41.918 167.622 45.63 165.766 45.63C164.916 45.63 164.49 45.05 164.49 43.89C164.49 43.078 164.896 41.4347 165.708 38.96C166.559 36.4467 167.332 33.9913 168.028 31.594C168.763 29.158 169.13 27.3407 169.13 26.142C169.13 24.9047 168.937 23.996 168.55 23.416C168.202 22.836 167.835 22.546 167.448 22.546C167.1 22.546 166.733 22.662 166.346 22.894C165.96 23.126 165.515 23.5127 165.012 24.054C164.548 24.5953 164.104 25.1367 163.678 25.678C163.253 26.1807 162.712 26.9153 162.054 27.882C161.436 28.8487 160.914 29.68 160.488 30.376C160.063 31.0333 159.444 32 158.632 33.276C157.82 34.552 157.202 35.5187 156.776 36.176C156.351 36.8333 155.79 37.7227 155.094 38.844C154.398 39.9653 153.838 40.8353 153.412 41.454C153.026 42.0727 152.581 42.7493 152.078 43.484C151.112 44.9147 150.338 45.63 149.758 45.63C149.217 45.63 148.579 45.2047 147.844 44.354C147.11 43.4647 146.742 42.6913 146.742 42.034C146.742 41.8407 146.878 41.3187 147.148 40.468C147.883 38.2253 148.695 35.4607 149.584 32.174C150.474 28.8487 150.957 25.0787 151.034 20.864C151.15 18.0413 151.556 16.63 152.252 16.63C153.103 16.63 153.954 17.0747 154.804 17.964C155.655 18.8533 156.08 19.8393 156.08 20.922C156.08 21.966 155.752 24.0153 155.094 27.07C154.476 30.086 153.741 32.9087 152.89 35.538ZM193.56 16.862C195.3 16.862 196.905 17.7513 198.374 19.53C199.843 21.27 200.578 22.8553 200.578 24.286C200.578 25.678 200.095 27.1087 199.128 28.578C199.592 29.158 199.824 29.6607 199.824 30.086C199.824 31.1687 199.573 33.0247 199.07 35.654C198.606 38.2833 198.316 40.004 198.2 40.816C198.123 41.628 198.045 42.2853 197.968 42.788C197.891 43.252 197.794 43.716 197.678 44.18C197.523 45.1467 197.175 45.63 196.634 45.63C195.938 45.63 195.358 45.0307 194.894 43.832C194.469 42.5947 194.217 41.0093 194.14 39.076C190.699 43.4453 187.509 45.63 184.57 45.63C182.791 45.63 181.032 44.876 179.292 43.368C177.591 41.8213 176.74 40.236 176.74 38.612C176.74 36.292 177.591 33.4307 179.292 30.028C180.993 26.5867 183.197 23.532 185.904 20.864C188.611 18.196 191.163 16.862 193.56 16.862ZM196.228 27.07C196.228 23.474 195.513 21.676 194.082 21.676C192.574 21.676 190.815 22.7587 188.804 24.924C186.793 27.0507 185.092 29.4673 183.7 32.174C182.308 34.8807 181.612 37.0267 181.612 38.612C181.612 39.2693 181.883 39.8107 182.424 40.236C182.965 40.6227 183.603 40.816 184.338 40.816C186.155 40.816 188.205 39.598 190.486 37.162C192.767 34.6873 194.353 31.6907 195.242 28.172C195.358 27.592 195.687 27.244 196.228 27.128V27.07ZM228.287 29.97C228.287 31.5167 227.611 33.276 226.257 35.248C225.213 37.6067 224.092 41.0093 222.893 45.456C221.695 49.864 220.689 53.0153 219.877 54.91C218.253 58.854 215.759 60.826 212.395 60.826C209.65 60.826 207.33 60.072 205.435 58.564C203.579 57.0947 202.651 55.6253 202.651 54.156C202.651 53.5373 202.845 52.9187 203.231 52.3C203.579 51.6813 203.947 51.372 204.333 51.372C204.759 51.372 205.223 51.662 205.725 52.242C206.228 52.822 206.692 53.4407 207.117 54.098C207.581 54.794 208.258 55.432 209.147 56.012C210.075 56.592 210.965 56.882 211.815 56.882C212.666 56.882 213.304 56.7467 213.729 56.476C214.155 56.244 214.561 55.838 214.947 55.258C215.334 54.7167 215.663 54.156 215.933 53.576C216.204 53.0347 216.494 52.242 216.803 51.198C217.151 50.1927 217.422 49.3227 217.615 48.588C217.809 47.8533 218.079 46.8287 218.427 45.514C218.775 44.1607 219.065 43.078 219.297 42.266C216.281 44.5087 213.826 45.63 211.931 45.63C210.037 45.63 208.393 44.876 207.001 43.368C205.609 41.8213 204.913 40.0427 204.913 38.032C204.913 35.9827 205.667 33.276 207.175 29.912C208.722 26.548 210.791 23.532 213.381 20.864C215.972 18.196 218.505 16.862 220.979 16.862C222.565 16.862 223.899 17.4613 224.981 18.66C226.76 20.632 227.649 23.4353 227.649 27.07C227.649 27.534 227.63 27.8627 227.591 28.056C228.055 28.7133 228.287 29.3513 228.287 29.97ZM209.611 38.612C209.611 39.2693 209.824 39.8107 210.249 40.236C210.675 40.6227 211.216 40.816 211.873 40.816C213.807 40.816 216.088 39.6753 218.717 37.394C221.347 35.074 223.203 32.3867 224.285 29.332C224.131 28.8293 223.995 28.056 223.879 27.012C223.763 25.968 223.647 25.1367 223.531 24.518C223.415 23.8993 223.164 23.2807 222.777 22.662C222.391 22.0047 221.888 21.676 221.269 21.676C219.761 21.676 218.06 22.7587 216.165 24.924C214.271 27.0893 212.705 29.506 211.467 32.174C210.23 34.842 209.611 36.988 209.611 38.612ZM255.989 26.49C255.989 28.5393 254.867 30.2213 252.625 31.536C250.421 32.812 247.907 33.45 245.085 33.45C242.301 33.45 239.768 33.1407 237.487 32.522C236.945 34.2233 236.675 35.7507 236.675 37.104C236.675 38.4187 237.081 39.4433 237.893 40.178C238.743 40.9127 240.116 41.28 242.011 41.28C243.944 41.28 245.916 40.9513 247.927 40.294C249.976 39.598 251.097 39.25 251.291 39.25C252.296 39.25 252.799 39.6367 252.799 40.41C252.799 41.454 251.619 42.5947 249.261 43.832C246.902 45.0307 244.601 45.63 242.359 45.63C239.343 45.63 236.887 44.7407 234.993 42.962C233.098 41.1447 232.151 38.8633 232.151 36.118C232.151 33.3727 232.885 30.5113 234.355 27.534C235.824 24.518 237.719 21.9853 240.039 19.936C242.359 17.8867 244.659 16.862 246.941 16.862C249.222 16.862 251.291 17.9447 253.147 20.11C255.041 22.2753 255.989 24.402 255.989 26.49ZM247.231 21.444C245.8 21.444 244.311 22.198 242.765 23.706C241.218 25.1753 239.903 27.012 238.821 29.216C240.367 29.564 242.127 29.738 244.099 29.738C246.071 29.738 247.791 29.4287 249.261 28.81C250.73 28.1527 251.465 27.302 251.465 26.258C251.465 25.214 250.981 24.1507 250.015 23.068C249.087 21.9853 248.159 21.444 247.231 21.444ZM296.484 16.862C297.644 16.862 298.669 17.674 299.558 19.298C300.486 20.8833 300.95 22.7007 300.95 24.75C300.95 26.7607 300.583 29.39 299.848 32.638C299.152 35.886 298.205 38.8633 297.006 41.57C295.807 44.2767 294.628 45.63 293.468 45.63C292.656 45.63 292.25 45.108 292.25 44.064C292.25 42.9813 292.907 40.3713 294.222 36.234C295.575 32.058 296.252 28.752 296.252 26.316C296.252 23.8413 295.865 22.604 295.092 22.604C294.125 22.604 293.004 23.4547 291.728 25.156C290.491 26.8573 289.157 28.9067 287.726 31.304C286.295 33.7013 285.522 34.9967 285.406 35.19C285.29 35.3447 285.135 35.5767 284.942 35.886C284.787 36.1953 284.594 36.524 284.362 36.872C284.169 37.22 283.627 38.264 282.738 40.004C281.887 41.744 281.133 43.1167 280.476 44.122C279.819 45.0887 279.239 45.572 278.736 45.572C278.272 45.572 277.75 45.2627 277.17 44.644C276.59 44.0253 276.3 43.4453 276.3 42.904C276.3 42.3627 276.648 41.2413 277.344 39.54C279.355 34.5133 280.36 29.8347 280.36 25.504C280.36 24.692 280.186 24.0153 279.838 23.474C279.49 22.894 279.103 22.604 278.678 22.604C278.253 22.604 277.808 22.7973 277.344 23.184C276.88 23.532 276.3 24.1893 275.604 25.156C274.908 26.084 274.289 26.9733 273.748 27.824C273.207 28.6747 272.375 30.0087 271.254 31.826C270.171 33.6047 269.34 34.9387 268.76 35.828C268.219 36.6787 267.581 37.684 266.846 38.844C266.111 39.9653 265.531 40.8353 265.106 41.454C264.719 42.0727 264.275 42.7493 263.772 43.484C262.728 44.9147 261.955 45.63 261.452 45.63C260.988 45.63 260.369 45.2047 259.596 44.354C258.823 43.4647 258.436 42.8073 258.436 42.382C258.436 41.918 258.513 41.3573 258.668 40.7C258.823 40.0427 258.977 39.4047 259.132 38.786C259.325 38.1673 259.596 37.2587 259.944 36.06C260.331 34.8227 260.756 33.392 261.22 31.768C261.723 30.1053 262.09 27.8433 262.322 24.982C262.593 22.082 262.786 19.9747 262.902 18.66C263.018 17.3067 263.347 16.63 263.888 16.63C264.739 16.63 265.57 17.0747 266.382 17.964C267.233 18.8533 267.658 19.7427 267.658 20.632C267.658 24.0347 266.382 29.6413 263.83 37.452C268.161 29.332 270.887 24.518 272.008 23.01C273.129 21.502 274.096 20.284 274.908 19.356C276.416 17.6933 277.943 16.862 279.49 16.862C280.418 16.862 281.52 17.674 282.796 19.298C284.111 20.8833 284.768 22.488 284.768 24.112C284.768 25.736 284.536 27.7467 284.072 30.144C288.635 21.2893 292.772 16.862 296.484 16.862ZM328.262 26.49C328.262 28.5393 327.141 30.2213 324.898 31.536C322.694 32.812 320.181 33.45 317.358 33.45C314.574 33.45 312.042 33.1407 309.76 32.522C309.219 34.2233 308.948 35.7507 308.948 37.104C308.948 38.4187 309.354 39.4433 310.166 40.178C311.017 40.9127 312.39 41.28 314.284 41.28C316.218 41.28 318.19 40.9513 320.2 40.294C322.25 39.598 323.371 39.25 323.564 39.25C324.57 39.25 325.072 39.6367 325.072 40.41C325.072 41.454 323.893 42.5947 321.534 43.832C319.176 45.0307 316.875 45.63 314.632 45.63C311.616 45.63 309.161 44.7407 307.266 42.962C305.372 41.1447 304.424 38.8633 304.424 36.118C304.424 33.3727 305.159 30.5113 306.628 27.534C308.098 24.518 309.992 21.9853 312.312 19.936C314.632 17.8867 316.933 16.862 319.214 16.862C321.496 16.862 323.564 17.9447 325.42 20.11C327.315 22.2753 328.262 24.402 328.262 26.49ZM319.504 21.444C318.074 21.444 316.585 22.198 315.038 23.706C313.492 25.1753 312.177 27.012 311.094 29.216C312.641 29.564 314.4 29.738 316.372 29.738C318.344 29.738 320.065 29.4287 321.534 28.81C323.004 28.1527 323.738 27.302 323.738 26.258C323.738 25.214 323.255 24.1507 322.288 23.068C321.36 21.9853 320.432 21.444 319.504 21.444ZM336.916 35.538C340.628 29.2353 343.644 24.5567 345.964 21.502C348.322 18.4087 350.236 16.862 351.706 16.862C353.214 16.862 354.625 17.6547 355.94 19.24C357.293 20.8253 357.97 22.5073 357.97 24.286C357.97 27.07 357.332 30.4727 356.056 34.494C353.736 41.918 351.648 45.63 349.792 45.63C348.941 45.63 348.516 45.05 348.516 43.89C348.516 43.078 348.922 41.4347 349.734 38.96C350.584 36.4467 351.358 33.9913 352.054 31.594C352.788 29.158 353.156 27.3407 353.156 26.142C353.156 24.9047 352.962 23.996 352.576 23.416C352.228 22.836 351.86 22.546 351.474 22.546C351.126 22.546 350.758 22.662 350.372 22.894C349.985 23.126 349.54 23.5127 349.038 24.054C348.574 24.5953 348.129 25.1367 347.704 25.678C347.278 26.1807 346.737 26.9153 346.08 27.882C345.461 28.8487 344.939 29.68 344.514 30.376C344.088 31.0333 343.47 32 342.658 33.276C341.846 34.552 341.227 35.5187 340.802 36.176C340.376 36.8333 339.816 37.7227 339.12 38.844C338.424 39.9653 337.863 40.8353 337.438 41.454C337.051 42.0727 336.606 42.7493 336.104 43.484C335.137 44.9147 334.364 45.63 333.784 45.63C333.242 45.63 332.604 45.2047 331.87 44.354C331.135 43.4647 330.768 42.6913 330.768 42.034C330.768 41.8407 330.903 41.3187 331.174 40.468C331.908 38.2253 332.72 35.4607 333.61 32.174C334.499 28.8487 334.982 25.0787 335.06 20.864C335.176 18.0413 335.582 16.63 336.278 16.63C337.128 16.63 337.979 17.0747 338.83 17.964C339.68 18.8533 340.106 19.8393 340.106 20.922C340.106 21.966 339.777 24.0153 339.12 27.07C338.501 30.086 337.766 32.9087 336.916 35.538ZM368.653 39.83C368.653 40.5647 369.079 40.932 369.929 40.932C371.399 40.932 373.177 40.526 375.265 39.714C377.392 38.8633 378.571 38.438 378.803 38.438C379.499 38.438 379.847 38.8053 379.847 39.54C379.847 40.6613 378.687 41.9567 376.367 43.426C374.086 44.8953 371.998 45.63 370.103 45.63C368.247 45.63 366.701 45.1273 365.463 44.122C364.226 43.078 363.607 42.0147 363.607 40.932C363.607 39.8493 363.839 38.4767 364.303 36.814C364.767 35.1127 365.425 32.8893 366.275 30.144C367.165 27.36 367.861 25.0593 368.363 23.242C366.546 23.6673 365.328 23.88 364.709 23.88C364.091 23.88 363.472 23.5707 362.853 22.952C362.273 22.2947 361.983 21.676 361.983 21.096C361.983 20.168 364.497 19.2787 369.523 18.428C370.219 15.2187 370.567 12.3767 370.567 9.902C370.567 8.742 370.954 8.162 371.727 8.162C372.385 8.162 373.197 8.58733 374.163 9.438C375.13 10.25 375.613 11.178 375.613 12.222C375.613 13.266 375.285 15.1027 374.627 17.732C376.831 17.5387 378.591 17.442 379.905 17.442C382.225 17.442 383.385 17.9447 383.385 18.95C383.385 19.53 382.747 20.0133 381.471 20.4C380.234 20.7867 377.605 21.386 373.583 22.198C372.771 25.2527 371.747 28.752 370.509 32.696C369.272 36.6013 368.653 38.9793 368.653 39.83Z" fill="#363636"/>
</svg>
