<svg width="502" height="61" viewBox="0 0 502 61" fill="none" xmlns="http://www.w3.org/2000/svg">
<path d="M28.042 5.69C28.042 5.07133 28.1193 4.62666 28.274 4.356C28.4673 4.08533 28.8347 3.95 29.376 3.95C29.956 3.95 30.6713 4.43333 31.522 5.4C32.3727 6.36667 32.798 7.39133 32.798 8.474C32.798 11.1807 31.1353 18.0247 27.81 29.006C26.1473 34.342 25.316 37.532 25.316 38.576C25.316 39.62 25.8187 40.142 26.824 40.142C31.1933 40.142 35.988 39.4267 41.208 37.996C42.8707 37.532 43.8567 37.3 44.166 37.3C44.514 37.3 44.746 37.3773 44.862 37.532C44.978 37.648 45.036 37.8993 45.036 38.286C45.036 39.91 43.0447 41.4373 39.062 42.868C35.118 44.2987 31.0967 45.014 26.998 45.014C25.142 45.014 23.518 44.4727 22.126 43.39C20.7727 42.3073 20.096 41.0313 20.096 39.562C20.096 38.054 21.4107 32.6987 24.04 23.496C26.708 14.2933 28.042 8.358 28.042 5.69ZM57.3841 8.126C57.3841 7.35266 57.6934 6.618 58.3121 5.922C58.9308 5.226 59.5494 4.878 60.1681 4.878C60.8254 4.878 61.5988 5.67066 62.4881 7.256C63.3774 8.80267 63.8221 10.098 63.8221 11.142C63.8221 11.5287 63.6481 11.8767 63.3001 12.186C62.9521 12.4953 62.5848 12.65 62.1981 12.65C61.2701 12.65 60.2261 12.0893 59.0661 10.968C57.9448 9.84667 57.3841 8.89933 57.3841 8.126ZM57.0941 16.362C57.8288 16.362 58.5248 16.8067 59.1821 17.696C59.8394 18.5853 60.1681 19.4553 60.1681 20.306C60.1681 21.1567 59.6074 23.7087 58.4861 27.962C57.3648 32.1767 55.9534 36.9133 54.2521 42.172C53.5948 44.1053 52.7634 45.072 51.7581 45.072C51.2168 45.072 50.7528 44.8593 50.3661 44.434C49.9794 43.97 49.7861 43.4673 49.7861 42.926C49.7861 42.346 49.9214 41.4567 50.1921 40.258C50.5014 39.0207 50.9268 37.3967 51.4681 35.386C52.0481 33.3367 52.4928 31.674 52.8021 30.398C53.1501 29.122 53.4981 27.6913 53.8461 26.106C54.1941 24.482 54.4648 23.1867 54.6581 22.22C54.8901 21.2147 55.1414 20.2093 55.4121 19.204C55.9534 17.3093 56.5141 16.362 57.0941 16.362ZM66.2744 45.13C65.7331 45.13 65.0951 44.724 64.3604 43.912C63.6258 43.0613 63.2584 42.2687 63.2584 41.534C63.2584 40.7993 63.8578 38.286 65.0564 33.994C66.2938 29.702 67.5118 24.54 68.7104 18.508C69.9478 12.4373 70.5664 6.88866 70.5664 1.862C70.5664 0.701999 70.9918 0.122 71.8424 0.122C72.4611 0.122 73.2151 0.701999 74.1044 1.862C74.9938 2.98333 75.4384 4.08533 75.4384 5.168C75.4384 9.924 74.3944 16.71 72.3064 25.526C76.9078 19.3007 81.0838 16.188 84.8344 16.188C86.6518 16.188 88.1791 17.0773 89.4164 18.856C90.6924 20.6347 91.3304 22.7613 91.3304 25.236C91.3304 27.672 90.6151 30.4753 89.1844 33.646C87.7924 36.8167 85.8978 39.5427 83.5004 41.824C81.1031 44.0667 78.5898 45.188 75.9604 45.188C73.3311 45.188 70.7404 43.854 68.1884 41.186L68.1304 41.244C67.2798 43.8347 66.6611 45.13 66.2744 45.13ZM75.4964 40.664C78.0098 40.664 80.4651 38.9627 82.8624 35.56C85.2984 32.1187 86.5164 28.5033 86.5164 24.714C86.5164 22.4327 85.8204 21.292 84.4284 21.292C82.1858 21.292 79.6724 22.858 76.8884 25.99C74.1431 29.122 71.7651 32.8533 69.7544 37.184C71.5718 39.504 73.4858 40.664 75.4964 40.664ZM103.185 6.096C103.185 5.43866 103.262 4.994 103.417 4.762C103.61 4.49133 103.939 4.356 104.403 4.356C104.906 4.356 105.756 4.878 106.955 5.922C108.154 6.966 108.792 7.894 108.869 8.706C109.024 10.098 109.758 12.5727 111.073 16.13C112.388 19.6487 113.896 23.2253 115.597 26.86C117.762 24.308 120.488 20.9247 123.775 16.71C127.062 12.4567 129.498 9.44067 131.083 7.662C132.668 5.88333 133.809 4.994 134.505 4.994C135.201 4.994 135.936 5.38067 136.709 6.154C137.482 6.92733 137.869 7.662 137.869 8.358C137.869 9.054 137.792 9.84666 137.637 10.736C137.482 11.6253 137.212 12.8047 136.825 14.274C136.477 15.7047 136.148 16.9613 135.839 18.044C135.568 19.088 135.104 20.7313 134.447 22.974C133.79 25.2167 133.287 27.0147 132.939 28.368C132.591 29.6827 132.185 31.3067 131.721 33.24C131.257 35.1347 130.87 36.7007 130.561 37.938C130.29 39.1367 130 40.316 129.691 41.476C129.111 43.7187 128.55 44.84 128.009 44.84C127.506 44.84 127.004 44.376 126.501 43.448C125.998 42.52 125.747 41.2827 125.747 39.736C125.747 38.1507 126.404 34.5547 127.719 28.948C129.072 23.3413 130.522 18.4307 132.069 14.216C124.954 23.1093 120.566 28.426 118.903 30.166C117.279 31.906 115.926 32.776 114.843 32.776C113.799 32.776 112.813 32.1767 111.885 30.978C110.493 28.9673 108.618 24.2113 106.259 16.71C105.602 20.77 104.867 24.25 104.055 27.15C103.282 30.0113 102.76 31.9253 102.489 32.892C102.257 33.82 102.044 34.5933 101.851 35.212C101.696 35.8307 101.503 36.5653 101.271 37.416C101.039 38.228 100.826 38.9047 100.633 39.446C100.478 39.9873 100.304 40.5867 100.111 41.244C99.9177 41.8627 99.7437 42.3653 99.5891 42.752C99.4731 43.1387 99.3377 43.506 99.1831 43.854C98.8737 44.5113 98.6417 44.84 98.4871 44.84C98.0231 44.84 97.4431 44.3373 96.7471 43.332C96.0511 42.3267 95.7031 41.36 95.7031 40.432C95.7031 39.504 96.9404 34.168 99.4151 24.424C101.928 14.68 103.185 8.57067 103.185 6.096ZM155.447 16.362C157.187 16.362 158.791 17.2513 160.261 19.03C161.73 20.77 162.465 22.3553 162.465 23.786C162.465 25.178 161.981 26.6087 161.015 28.078C161.479 28.658 161.711 29.1607 161.711 29.586C161.711 30.6687 161.459 32.5247 160.957 35.154C160.493 37.7833 160.203 39.504 160.087 40.316C160.009 41.128 159.932 41.7853 159.855 42.288C159.777 42.752 159.681 43.216 159.565 43.68C159.41 44.6467 159.062 45.13 158.521 45.13C157.825 45.13 157.245 44.5307 156.781 43.332C156.355 42.0947 156.104 40.5093 156.027 38.576C152.585 42.9453 149.395 45.13 146.457 45.13C144.678 45.13 142.919 44.376 141.179 42.868C139.477 41.3213 138.627 39.736 138.627 38.112C138.627 35.792 139.477 32.9307 141.179 29.528C142.88 26.0867 145.084 23.032 147.791 20.364C150.497 17.696 153.049 16.362 155.447 16.362ZM158.115 26.57C158.115 22.974 157.399 21.176 155.969 21.176C154.461 21.176 152.701 22.2587 150.691 24.424C148.68 26.5507 146.979 28.9673 145.587 31.674C144.195 34.3807 143.499 36.5267 143.499 38.112C143.499 38.7693 143.769 39.3107 144.311 39.736C144.852 40.1227 145.49 40.316 146.225 40.316C148.042 40.316 150.091 39.098 152.373 36.662C154.654 34.1873 156.239 31.1907 157.129 27.672C157.245 27.092 157.573 26.744 158.115 26.628V26.57ZM172.89 35.038C176.602 28.7353 179.618 24.0567 181.938 21.002C184.297 17.9087 186.211 16.362 187.68 16.362C189.188 16.362 190.6 17.1547 191.914 18.74C193.268 20.3253 193.944 22.0073 193.944 23.786C193.944 26.57 193.306 29.9727 192.03 33.994C189.71 41.418 187.622 45.13 185.766 45.13C184.916 45.13 184.49 44.55 184.49 43.39C184.49 42.578 184.896 40.9347 185.708 38.46C186.559 35.9467 187.332 33.4913 188.028 31.094C188.763 28.658 189.13 26.8407 189.13 25.642C189.13 24.4047 188.937 23.496 188.55 22.916C188.202 22.336 187.835 22.046 187.448 22.046C187.1 22.046 186.733 22.162 186.346 22.394C185.96 22.626 185.515 23.0127 185.012 23.554C184.548 24.0953 184.104 24.6367 183.678 25.178C183.253 25.6807 182.712 26.4153 182.054 27.382C181.436 28.3487 180.914 29.18 180.488 29.876C180.063 30.5333 179.444 31.5 178.632 32.776C177.82 34.052 177.202 35.0187 176.776 35.676C176.351 36.3333 175.79 37.2227 175.094 38.344C174.398 39.4653 173.838 40.3353 173.412 40.954C173.026 41.5727 172.581 42.2493 172.078 42.984C171.112 44.4147 170.338 45.13 169.758 45.13C169.217 45.13 168.579 44.7047 167.844 43.854C167.11 42.9647 166.742 42.1913 166.742 41.534C166.742 41.3407 166.878 40.8187 167.148 39.968C167.883 37.7253 168.695 34.9607 169.584 31.674C170.474 28.3487 170.957 24.5787 171.034 20.364C171.15 17.5413 171.556 16.13 172.252 16.13C173.103 16.13 173.954 16.5747 174.804 17.464C175.655 18.3533 176.08 19.3393 176.08 20.422C176.08 21.466 175.752 23.5153 175.094 26.57C174.476 29.586 173.741 32.4087 172.89 35.038ZM213.56 16.362C215.3 16.362 216.905 17.2513 218.374 19.03C219.843 20.77 220.578 22.3553 220.578 23.786C220.578 25.178 220.095 26.6087 219.128 28.078C219.592 28.658 219.824 29.1607 219.824 29.586C219.824 30.6687 219.573 32.5247 219.07 35.154C218.606 37.7833 218.316 39.504 218.2 40.316C218.123 41.128 218.045 41.7853 217.968 42.288C217.891 42.752 217.794 43.216 217.678 43.68C217.523 44.6467 217.175 45.13 216.634 45.13C215.938 45.13 215.358 44.5307 214.894 43.332C214.469 42.0947 214.217 40.5093 214.14 38.576C210.699 42.9453 207.509 45.13 204.57 45.13C202.791 45.13 201.032 44.376 199.292 42.868C197.591 41.3213 196.74 39.736 196.74 38.112C196.74 35.792 197.591 32.9307 199.292 29.528C200.993 26.0867 203.197 23.032 205.904 20.364C208.611 17.696 211.163 16.362 213.56 16.362ZM216.228 26.57C216.228 22.974 215.513 21.176 214.082 21.176C212.574 21.176 210.815 22.2587 208.804 24.424C206.793 26.5507 205.092 28.9673 203.7 31.674C202.308 34.3807 201.612 36.5267 201.612 38.112C201.612 38.7693 201.883 39.3107 202.424 39.736C202.965 40.1227 203.603 40.316 204.338 40.316C206.155 40.316 208.205 39.098 210.486 36.662C212.767 34.1873 214.353 31.1907 215.242 27.672C215.358 27.092 215.687 26.744 216.228 26.628V26.57ZM248.287 29.47C248.287 31.0167 247.611 32.776 246.257 34.748C245.213 37.1067 244.092 40.5093 242.893 44.956C241.695 49.364 240.689 52.5153 239.877 54.41C238.253 58.354 235.759 60.326 232.395 60.326C229.65 60.326 227.33 59.572 225.435 58.064C223.579 56.5947 222.651 55.1253 222.651 53.656C222.651 53.0373 222.845 52.4187 223.231 51.8C223.579 51.1813 223.947 50.872 224.333 50.872C224.759 50.872 225.223 51.162 225.725 51.742C226.228 52.322 226.692 52.9407 227.117 53.598C227.581 54.294 228.258 54.932 229.147 55.512C230.075 56.092 230.965 56.382 231.815 56.382C232.666 56.382 233.304 56.2467 233.729 55.976C234.155 55.744 234.561 55.338 234.947 54.758C235.334 54.2167 235.663 53.656 235.933 53.076C236.204 52.5347 236.494 51.742 236.803 50.698C237.151 49.6927 237.422 48.8227 237.615 48.088C237.809 47.3533 238.079 46.3287 238.427 45.014C238.775 43.6607 239.065 42.578 239.297 41.766C236.281 44.0087 233.826 45.13 231.931 45.13C230.037 45.13 228.393 44.376 227.001 42.868C225.609 41.3213 224.913 39.5427 224.913 37.532C224.913 35.4827 225.667 32.776 227.175 29.412C228.722 26.048 230.791 23.032 233.381 20.364C235.972 17.696 238.505 16.362 240.979 16.362C242.565 16.362 243.899 16.9613 244.981 18.16C246.76 20.132 247.649 22.9353 247.649 26.57C247.649 27.034 247.63 27.3627 247.591 27.556C248.055 28.2133 248.287 28.8513 248.287 29.47ZM229.611 38.112C229.611 38.7693 229.824 39.3107 230.249 39.736C230.675 40.1227 231.216 40.316 231.873 40.316C233.807 40.316 236.088 39.1753 238.717 36.894C241.347 34.574 243.203 31.8867 244.285 28.832C244.131 28.3293 243.995 27.556 243.879 26.512C243.763 25.468 243.647 24.6367 243.531 24.018C243.415 23.3993 243.164 22.7807 242.777 22.162C242.391 21.5047 241.888 21.176 241.269 21.176C239.761 21.176 238.06 22.2587 236.165 24.424C234.271 26.5893 232.705 29.006 231.467 31.674C230.23 34.342 229.611 36.488 229.611 38.112ZM275.989 25.99C275.989 28.0393 274.867 29.7213 272.625 31.036C270.421 32.312 267.907 32.95 265.085 32.95C262.301 32.95 259.768 32.6407 257.487 32.022C256.945 33.7233 256.675 35.2507 256.675 36.604C256.675 37.9187 257.081 38.9433 257.893 39.678C258.743 40.4127 260.116 40.78 262.011 40.78C263.944 40.78 265.916 40.4513 267.927 39.794C269.976 39.098 271.097 38.75 271.291 38.75C272.296 38.75 272.799 39.1367 272.799 39.91C272.799 40.954 271.619 42.0947 269.261 43.332C266.902 44.5307 264.601 45.13 262.359 45.13C259.343 45.13 256.887 44.2407 254.993 42.462C253.098 40.6447 252.151 38.3633 252.151 35.618C252.151 32.8727 252.885 30.0113 254.355 27.034C255.824 24.018 257.719 21.4853 260.039 19.436C262.359 17.3867 264.659 16.362 266.941 16.362C269.222 16.362 271.291 17.4447 273.147 19.61C275.041 21.7753 275.989 23.902 275.989 25.99ZM267.231 20.944C265.8 20.944 264.311 21.698 262.765 23.206C261.218 24.6753 259.903 26.512 258.821 28.716C260.367 29.064 262.127 29.238 264.099 29.238C266.071 29.238 267.791 28.9287 269.261 28.31C270.73 27.6527 271.465 26.802 271.465 25.758C271.465 24.714 270.981 23.6507 270.015 22.568C269.087 21.4853 268.159 20.944 267.231 20.944ZM316.484 16.362C317.644 16.362 318.669 17.174 319.558 18.798C320.486 20.3833 320.95 22.2007 320.95 24.25C320.95 26.2607 320.583 28.89 319.848 32.138C319.152 35.386 318.205 38.3633 317.006 41.07C315.807 43.7767 314.628 45.13 313.468 45.13C312.656 45.13 312.25 44.608 312.25 43.564C312.25 42.4813 312.907 39.8713 314.222 35.734C315.575 31.558 316.252 28.252 316.252 25.816C316.252 23.3413 315.865 22.104 315.092 22.104C314.125 22.104 313.004 22.9547 311.728 24.656C310.491 26.3573 309.157 28.4067 307.726 30.804C306.295 33.2013 305.522 34.4967 305.406 34.69C305.29 34.8447 305.135 35.0767 304.942 35.386C304.787 35.6953 304.594 36.024 304.362 36.372C304.169 36.72 303.627 37.764 302.738 39.504C301.887 41.244 301.133 42.6167 300.476 43.622C299.819 44.5887 299.239 45.072 298.736 45.072C298.272 45.072 297.75 44.7627 297.17 44.144C296.59 43.5253 296.3 42.9453 296.3 42.404C296.3 41.8627 296.648 40.7413 297.344 39.04C299.355 34.0133 300.36 29.3347 300.36 25.004C300.36 24.192 300.186 23.5153 299.838 22.974C299.49 22.394 299.103 22.104 298.678 22.104C298.253 22.104 297.808 22.2973 297.344 22.684C296.88 23.032 296.3 23.6893 295.604 24.656C294.908 25.584 294.289 26.4733 293.748 27.324C293.207 28.1747 292.375 29.5087 291.254 31.326C290.171 33.1047 289.34 34.4387 288.76 35.328C288.219 36.1787 287.581 37.184 286.846 38.344C286.111 39.4653 285.531 40.3353 285.106 40.954C284.719 41.5727 284.275 42.2493 283.772 42.984C282.728 44.4147 281.955 45.13 281.452 45.13C280.988 45.13 280.369 44.7047 279.596 43.854C278.823 42.9647 278.436 42.3073 278.436 41.882C278.436 41.418 278.513 40.8573 278.668 40.2C278.823 39.5427 278.977 38.9047 279.132 38.286C279.325 37.6673 279.596 36.7587 279.944 35.56C280.331 34.3227 280.756 32.892 281.22 31.268C281.723 29.6053 282.09 27.3433 282.322 24.482C282.593 21.582 282.786 19.4747 282.902 18.16C283.018 16.8067 283.347 16.13 283.888 16.13C284.739 16.13 285.57 16.5747 286.382 17.464C287.233 18.3533 287.658 19.2427 287.658 20.132C287.658 23.5347 286.382 29.1413 283.83 36.952C288.161 28.832 290.887 24.018 292.008 22.51C293.129 21.002 294.096 19.784 294.908 18.856C296.416 17.1933 297.943 16.362 299.49 16.362C300.418 16.362 301.52 17.174 302.796 18.798C304.111 20.3833 304.768 21.988 304.768 23.612C304.768 25.236 304.536 27.2467 304.072 29.644C308.635 20.7893 312.772 16.362 316.484 16.362ZM348.262 25.99C348.262 28.0393 347.141 29.7213 344.898 31.036C342.694 32.312 340.181 32.95 337.358 32.95C334.574 32.95 332.042 32.6407 329.76 32.022C329.219 33.7233 328.948 35.2507 328.948 36.604C328.948 37.9187 329.354 38.9433 330.166 39.678C331.017 40.4127 332.39 40.78 334.284 40.78C336.218 40.78 338.19 40.4513 340.2 39.794C342.25 39.098 343.371 38.75 343.564 38.75C344.57 38.75 345.072 39.1367 345.072 39.91C345.072 40.954 343.893 42.0947 341.534 43.332C339.176 44.5307 336.875 45.13 334.632 45.13C331.616 45.13 329.161 44.2407 327.266 42.462C325.372 40.6447 324.424 38.3633 324.424 35.618C324.424 32.8727 325.159 30.0113 326.628 27.034C328.098 24.018 329.992 21.4853 332.312 19.436C334.632 17.3867 336.933 16.362 339.214 16.362C341.496 16.362 343.564 17.4447 345.42 19.61C347.315 21.7753 348.262 23.902 348.262 25.99ZM339.504 20.944C338.074 20.944 336.585 21.698 335.038 23.206C333.492 24.6753 332.177 26.512 331.094 28.716C332.641 29.064 334.4 29.238 336.372 29.238C338.344 29.238 340.065 28.9287 341.534 28.31C343.004 27.6527 343.738 26.802 343.738 25.758C343.738 24.714 343.255 23.6507 342.288 22.568C341.36 21.4853 340.432 20.944 339.504 20.944ZM356.916 35.038C360.628 28.7353 363.644 24.0567 365.964 21.002C368.322 17.9087 370.236 16.362 371.706 16.362C373.214 16.362 374.625 17.1547 375.94 18.74C377.293 20.3253 377.97 22.0073 377.97 23.786C377.97 26.57 377.332 29.9727 376.056 33.994C373.736 41.418 371.648 45.13 369.792 45.13C368.941 45.13 368.516 44.55 368.516 43.39C368.516 42.578 368.922 40.9347 369.734 38.46C370.584 35.9467 371.358 33.4913 372.054 31.094C372.788 28.658 373.156 26.8407 373.156 25.642C373.156 24.4047 372.962 23.496 372.576 22.916C372.228 22.336 371.86 22.046 371.474 22.046C371.126 22.046 370.758 22.162 370.372 22.394C369.985 22.626 369.54 23.0127 369.038 23.554C368.574 24.0953 368.129 24.6367 367.704 25.178C367.278 25.6807 366.737 26.4153 366.08 27.382C365.461 28.3487 364.939 29.18 364.514 29.876C364.088 30.5333 363.47 31.5 362.658 32.776C361.846 34.052 361.227 35.0187 360.802 35.676C360.376 36.3333 359.816 37.2227 359.12 38.344C358.424 39.4653 357.863 40.3353 357.438 40.954C357.051 41.5727 356.606 42.2493 356.104 42.984C355.137 44.4147 354.364 45.13 353.784 45.13C353.242 45.13 352.604 44.7047 351.87 43.854C351.135 42.9647 350.768 42.1913 350.768 41.534C350.768 41.3407 350.903 40.8187 351.174 39.968C351.908 37.7253 352.72 34.9607 353.61 31.674C354.499 28.3487 354.982 24.5787 355.06 20.364C355.176 17.5413 355.582 16.13 356.278 16.13C357.128 16.13 357.979 16.5747 358.83 17.464C359.68 18.3533 360.106 19.3393 360.106 20.422C360.106 21.466 359.777 23.5153 359.12 26.57C358.501 29.586 357.766 32.4087 356.916 35.038ZM388.653 39.33C388.653 40.0647 389.079 40.432 389.929 40.432C391.399 40.432 393.177 40.026 395.265 39.214C397.392 38.3633 398.571 37.938 398.803 37.938C399.499 37.938 399.847 38.3053 399.847 39.04C399.847 40.1613 398.687 41.4567 396.367 42.926C394.086 44.3953 391.998 45.13 390.103 45.13C388.247 45.13 386.701 44.6273 385.463 43.622C384.226 42.578 383.607 41.5147 383.607 40.432C383.607 39.3493 383.839 37.9767 384.303 36.314C384.767 34.6127 385.425 32.3893 386.275 29.644C387.165 26.86 387.861 24.5593 388.363 22.742C386.546 23.1673 385.328 23.38 384.709 23.38C384.091 23.38 383.472 23.0707 382.853 22.452C382.273 21.7947 381.983 21.176 381.983 20.596C381.983 19.668 384.497 18.7787 389.523 17.928C390.219 14.7187 390.567 11.8767 390.567 9.402C390.567 8.242 390.954 7.662 391.727 7.662C392.385 7.662 393.197 8.08733 394.163 8.938C395.13 9.75 395.613 10.678 395.613 11.722C395.613 12.766 395.285 14.6027 394.627 17.232C396.831 17.0387 398.591 16.942 399.905 16.942C402.225 16.942 403.385 17.4447 403.385 18.45C403.385 19.03 402.747 19.5133 401.471 19.9C400.234 20.2867 397.605 20.886 393.583 21.698C392.771 24.7527 391.747 28.252 390.509 32.196C389.272 36.1013 388.653 38.4793 388.653 39.33Z" fill="#363636"/>
<path d="M426.061 15.7131C424.278 15.3969 422.526 15.6528 420.768 15.9569C420.493 16.0034 420.268 16.2403 420.282 16.4625C420.329 17.1318 420.513 17.7736 420.563 18.4309C420.664 19.7695 420.765 21.1081 420.866 22.4459C420.945 23.5201 421.016 24.596 421.147 25.6676C421.281 26.7789 421.262 27.9176 421.286 29.0332C421.311 30.1754 421.313 31.3194 421.308 32.4625C421.289 37.308 421.123 42.1612 421.515 47.0015C421.543 47.346 421.886 47.5244 422.297 47.4744C422.384 47.4641 422.468 47.4546 422.555 47.4451C422.601 47.4399 422.645 47.4348 422.69 47.4305C422.88 47.4098 422.555 47.4443 422.715 47.427C422.906 47.4072 423.098 47.3865 423.289 47.3659C423.43 47.3512 423.132 47.3822 423.278 47.3667C423.319 47.3624 423.361 47.3581 423.403 47.3538C423.492 47.3443 423.581 47.3357 423.668 47.3262C423.887 47.3047 424.104 47.2832 424.322 47.2625C424.827 47.2151 425.333 47.1712 425.84 47.1316C428.648 46.9067 431.472 46.7792 434.294 46.7947C437.435 46.812 440.609 46.9946 443.653 47.626C445.02 47.9103 446.271 48.2695 447.478 48.8182C448.519 49.292 449.43 49.907 450.056 50.6823C450.095 50.7306 450.133 50.7805 450.171 50.8296C450.618 51.4318 451.799 50.8856 451.35 50.2826C449.939 48.3866 447.383 47.3185 444.808 46.6931C441.764 45.9523 438.523 45.7404 435.355 45.6947C430.925 45.6301 426.402 45.8851 422.039 46.5165C422.015 46.5199 421.992 46.5234 421.968 46.5268C422.23 46.6853 422.49 46.843 422.752 47.0015C422.181 42.4937 422.338 37.9532 422.352 33.4299C422.36 31.1531 422.342 28.8755 422.219 26.6014C422.153 25.4032 422.007 24.2067 421.91 23.0102C421.791 21.5793 421.691 20.1477 421.604 18.7151C421.558 17.9657 421.649 17.2128 421.605 16.4625C421.443 16.6305 421.28 16.8002 421.118 16.9682C422.711 16.702 424.277 16.5538 425.908 16.6176C426.561 16.6434 426.7 15.8259 426.061 15.7131Z" fill="#AF1C9C"/>
<path d="M451.343 50.0337C451.136 49.5608 450.995 49.2446 450.654 48.8234C450.311 48.3978 449.934 47.9921 449.543 47.5924C448.699 46.7284 447.741 45.9342 446.702 45.2149C444.143 43.4421 441.044 42.2137 437.738 41.6004C432.969 40.714 428.026 41.168 423.367 42.2353C423.649 42.4592 423.932 42.6841 424.214 42.908C425.793 38.5226 426.153 33.9295 426.141 29.3889C426.135 27.2216 425.977 25.0586 425.946 22.893C425.923 21.2408 426.245 19.5903 426.454 17.9493C426.847 14.8577 427.02 11.4491 424.313 8.94149C424.152 9.24901 423.991 9.5574 423.831 9.86493C428.784 9.3498 433.863 9.77706 438.586 11.0502C443.073 12.2588 447.161 14.3055 450.547 16.9285C451.313 17.5229 452.49 16.5909 451.722 15.9956C448.242 13.2985 443.975 11.3044 439.401 10.0226C434.674 8.69771 429.401 8.15846 424.424 8.72096C424.166 8.75025 423.908 8.77437 423.649 8.8028C423.098 8.8631 423.056 9.43766 423.348 9.70643C424.66 10.9081 425.083 12.5362 425.195 14.0833C425.321 15.8259 425.053 17.5755 424.815 19.3052C424.701 20.133 424.591 20.9608 424.528 21.7921C424.464 22.6484 424.513 23.4986 424.551 24.354C424.648 26.6255 424.737 28.8979 424.704 31.1712C424.648 35.0278 424.225 38.8964 422.886 42.6169C422.743 43.0157 423.23 43.4051 423.734 43.2896C428.094 42.2904 432.779 41.8838 437.249 42.6686C440.454 43.2319 443.435 44.4345 445.936 46.1194C446.919 46.7818 447.82 47.5201 448.645 48.3057C449.022 48.6649 449.33 48.9888 449.658 49.3497C449.998 49.7253 450.309 49.982 450.696 50.3326C450.949 50.5609 451.469 50.3205 451.343 50.0337Z" fill="#AF1C9C"/>
<path d="M451.234 16.8975H451.281C451.378 16.8984 451.377 16.7804 451.281 16.7795C451.169 16.7778 451.058 16.7769 450.946 16.7761C450.844 16.7744 450.844 16.9001 450.946 16.901C450.979 16.901 451.012 16.901 451.034 16.8786C451.06 16.8519 451.06 16.8252 451.034 16.7985C451.012 16.7752 450.979 16.7752 450.946 16.7761C450.844 16.7761 450.844 16.9027 450.946 16.901C451.058 16.9001 451.169 16.8993 451.281 16.8975C451.377 16.8967 451.378 16.7778 451.281 16.7795H451.234C451.137 16.7812 451.137 16.8958 451.234 16.8975Z" fill="#AF1C9C"/>
<path d="M476.829 17.2998C477.533 17.261 478.042 17.031 478.658 16.7967C478.496 16.8579 478.704 16.7864 478.739 16.7769C478.814 16.758 478.89 16.7468 478.966 16.7356C478.828 16.7554 479.097 16.733 479.125 16.7321C479.235 16.7295 479.343 16.7364 479.452 16.7425C480.13 16.7829 480.811 16.9802 481.449 17.1508C481.288 16.9819 481.127 16.814 480.966 16.6451C480.924 17.2972 481.022 17.9536 480.981 18.604C480.897 19.9357 480.809 21.2666 480.702 22.5975C480.616 23.6657 480.539 24.7373 480.402 25.802C480.26 26.9141 480.274 28.0546 480.245 29.171C480.216 30.3149 480.208 31.4598 480.207 32.6046C480.204 37.4079 480.425 42.2361 479.815 47.023C480.071 46.8671 480.33 46.7112 480.587 46.5561C476.659 45.985 472.606 45.7541 468.62 45.7162C465.398 45.6869 462.144 45.8196 458.984 46.3425C456.305 46.7844 453.5 47.5588 451.548 49.1498C451.129 49.491 450.762 49.8751 450.452 50.2835C449.998 50.8847 451.179 51.43 451.632 50.8305C452.22 50.0535 453.081 49.4513 454.078 48.9707C455.253 48.4021 456.457 48.0524 457.793 47.7535C460.805 47.079 463.966 46.8809 467.084 46.8283C470 46.7792 472.919 46.8929 475.822 47.0945C476.826 47.1643 477.829 47.2478 478.829 47.3452C478.919 47.3538 479.007 47.3624 479.097 47.3719C479.135 47.3753 479.287 47.3917 479.096 47.371C479.178 47.3805 479.261 47.3874 479.343 47.396C479.494 47.4098 479.646 47.4244 479.797 47.4399C479.901 47.4503 480.006 47.4615 480.11 47.4718C479.936 47.4537 480.065 47.4675 480.182 47.4804C480.209 47.483 480.235 47.4864 480.262 47.489C480.668 47.5364 481.006 47.3633 481.034 47.023C481.406 42.4988 481.292 37.9635 481.256 33.435C481.238 31.1566 481.247 28.879 481.367 26.6022C481.429 25.4273 481.571 24.254 481.663 23.079C481.774 21.6577 481.879 20.2364 481.989 18.8142C482.044 18.0828 482.235 17.3859 482.287 16.6451C482.304 16.4031 482.07 16.2127 481.802 16.1395C480.744 15.8509 479.455 15.4856 478.331 15.7622C477.696 15.9198 477.243 16.2859 476.675 16.3936C476.045 16.515 476.171 17.3351 476.829 17.2998Z" fill="#AF1C9C"/>
<path d="M451.304 50.2705C451.455 50.0561 451.703 49.8553 451.831 49.6469C451.988 49.3928 452.179 49.1473 452.386 48.9173C452.807 48.4538 453.267 48.0317 453.785 47.6312C454.982 46.7051 456.396 45.9936 457.856 45.357C461.174 43.9098 464.942 43.0131 468.691 42.6341C471.99 42.3007 475.669 42.2749 478.778 43.3413C479.298 43.5188 479.977 43.2302 479.79 42.7237C478.181 38.3658 477.878 33.8097 477.933 29.2933C477.959 27.1716 478.161 25.0474 478.154 22.9266C478.149 21.2709 477.816 19.6213 477.608 17.976C477.281 15.3745 476.959 12.0977 479.321 9.98895C479.747 9.6082 479.423 9.12753 478.839 9.06637C468.93 8.01889 458.467 10.4472 451.003 15.7828C450.794 15.9327 450.588 16.0869 450.383 16.2411C449.605 16.8286 450.782 17.7598 451.558 17.174C458.786 11.7161 468.951 9.14476 478.839 10.1475C478.678 9.83993 478.519 9.5324 478.358 9.22487C475.39 11.9047 475.819 15.6175 476.277 18.9158C476.5 20.5275 476.745 22.1298 476.671 23.7544C476.568 26.0096 476.481 28.2639 476.5 30.52C476.534 34.7211 476.968 38.9679 478.462 43.014C478.799 42.8089 479.137 42.6031 479.474 42.3972C476.174 41.2644 472.449 41.1507 468.921 41.4781C465.038 41.8399 461.207 42.7271 457.724 44.145C456.009 44.8428 454.378 45.7266 452.996 46.7964C452.386 47.2702 451.837 47.8017 451.371 48.3694C451.16 48.6261 450.988 48.9018 450.82 49.1765C450.656 49.4427 450.63 49.8226 450.584 50.1146C450.533 50.4282 451.129 50.5204 451.304 50.2705Z" fill="#AF1C9C"/>
<path d="M451.036 16.9604L450.987 16.9596C450.891 16.9587 450.891 17.0776 450.987 17.0785C451.099 17.0793 451.213 17.081 451.326 17.0819C451.428 17.0828 451.428 16.957 451.326 16.9561C451.283 16.9561 451.252 16.9604 451.226 16.9906C451.212 17.0052 451.212 17.0328 451.226 17.0474C451.252 17.0776 451.283 17.0828 451.326 17.0819C451.428 17.081 451.428 16.9544 451.326 16.9561C451.213 16.9579 451.099 16.9587 450.987 16.9596C450.891 16.9613 450.891 17.0793 450.987 17.0785L451.036 17.0776C451.132 17.0767 451.132 16.9613 451.036 16.9604Z" fill="#AF1C9C"/>
<path d="M450.833 16.4711C450.439 21.2339 451.479 25.9941 451.589 30.7517C451.644 33.1344 451.628 35.5326 451.479 37.9118C451.379 39.4977 451.198 41.0852 451.043 42.6685C450.907 44.0339 450.773 45.4001 450.683 46.7672C450.612 47.8543 450.494 48.9569 450.592 50.0457C450.632 50.4833 451.505 50.4756 451.445 50.0457C451.268 48.7432 451.391 47.4029 451.503 46.0996C451.633 44.5697 451.793 43.0381 452.023 41.5142C452.664 37.2795 452.709 33.0207 452.385 28.7644C452.072 24.6632 451.551 20.5706 451.198 16.4711C451.181 16.285 450.849 16.2842 450.833 16.4711Z" fill="#AF1C9C"/>
<path d="M418.471 19.9409C418.947 20.0563 419.468 20.0357 419.962 20.052C420.365 20.0641 420.798 20.0865 421.196 20.0141C421.713 19.922 421.713 19.2793 421.196 19.1872C420.798 19.1148 420.365 19.1372 419.962 19.1493C419.468 19.1656 418.947 19.145 418.471 19.2604C418.048 19.3638 418.048 19.8375 418.471 19.9409Z" fill="#AF1C9C"/>
<path d="M481.805 20.1795C482.12 20.201 482.414 20.0753 482.588 19.8737C482.473 20.0072 482.341 20.0572 482.145 20.0779C482.189 20.0736 482.234 20.0761 482.277 20.0779C482.565 20.083 482.822 20.1244 483.082 19.9952C483.455 19.8108 483.455 19.3905 483.082 19.2061C482.762 19.0476 482.159 19.0872 481.813 19.2147C481.7 19.2552 481.624 19.3448 481.562 19.424C481.674 19.2785 481.632 19.3526 481.583 19.3948C481.541 19.4309 481.489 19.4576 481.448 19.4947C481.146 19.7686 481.358 20.1502 481.805 20.1795Z" fill="#AF1C9C"/>
<path d="M418.452 19.6006C418.474 20.63 418.677 21.6508 418.73 22.6828C418.784 23.7656 418.765 24.8501 418.713 25.9338C418.608 28.0856 418.35 30.2305 418.209 32.3806C417.898 37.1227 418.108 41.87 418.057 46.6138C418.047 47.6915 418.11 48.7691 418.105 49.8467C418.103 50.3429 419.079 50.3429 419.073 49.8467C419.047 47.477 418.741 45.1055 418.881 42.7331C418.952 41.5401 418.873 40.3324 418.873 39.1376C418.873 37.9445 418.884 36.7515 418.913 35.5593C419.013 31.1884 419.719 26.7978 419.326 22.4278C419.239 21.4665 419.151 20.4776 418.72 19.5714C418.669 19.4628 418.45 19.4714 418.452 19.6006Z" fill="#AF1C9C"/>
<path d="M418.48 50.3653C420.805 50.6082 423.154 50.4911 425.486 50.367C427.932 50.2361 430.37 50.0302 432.81 49.8571C435.19 49.6882 437.576 49.553 439.965 49.5332C441.143 49.5237 442.321 49.5478 443.497 49.609C444.108 49.6409 444.718 49.6848 445.325 49.7399C445.93 49.7951 446.493 49.9036 447.091 49.7727C447.481 49.6882 447.506 49.2954 447.197 49.1292C446.725 48.8742 446.21 48.8441 445.656 48.7872C445.05 48.7252 444.44 48.6804 443.83 48.6425C442.657 48.5727 441.48 48.5546 440.304 48.5607C437.858 48.5727 435.415 48.7235 432.982 48.9026C430.539 49.0827 428.099 49.2972 425.655 49.4694C423.267 49.6391 420.871 49.6943 418.48 49.8226C418.029 49.8467 418.051 50.3205 418.48 50.3653Z" fill="#AF1C9C"/>
<path d="M446.258 49.2679C446.202 49.6374 446.713 50.0681 447.021 50.3033C447.43 50.6151 447.875 50.9011 448.377 51.1139C449.44 51.567 450.679 51.5653 451.84 51.4214C452.886 51.2905 453.878 50.9183 454.672 50.367C455.311 49.9243 456.124 48.7967 455.431 48.1825C455.218 47.9938 454.849 48.067 454.689 48.2583C454.469 48.5227 454.58 48.869 454.424 49.1593C454.275 49.4376 454.02 49.6521 453.731 49.8424C453.114 50.2482 452.174 50.3972 451.406 50.4945C450.515 50.6082 449.566 50.5367 448.757 50.2085C448.34 50.0388 447.982 49.7968 447.631 49.5513C447.337 49.3463 446.779 49.0499 446.371 49.1498C446.3 49.1671 446.267 49.211 446.258 49.2679Z" fill="#AF1C9C"/>
<path d="M455.308 48.6072C456.262 48.5486 457.195 48.4642 458.154 48.4763C459.178 48.49 460.199 48.5676 461.223 48.596C462.448 48.6287 463.686 48.5495 464.912 48.5271C466.252 48.503 467.597 48.4806 468.939 48.5133C471.446 48.5745 473.954 48.6908 476.457 48.8182C477.689 48.8803 478.921 48.938 480.154 48.9819C480.805 49.0052 481.458 49.0224 482.111 49.0345C482.761 49.0474 483.431 49.0879 484.06 48.9328C484.571 48.8079 484.569 48.2411 484.06 48.1136C483.487 47.9715 482.884 47.9904 482.29 47.9775C481.637 47.9637 480.983 47.9405 480.331 47.9146C479.038 47.8647 477.748 47.7914 476.457 47.7242C473.89 47.589 471.33 47.477 468.755 47.4874C467.474 47.4925 466.193 47.4977 464.912 47.5261C463.639 47.5545 462.36 47.6364 461.088 47.6157C460.059 47.5985 459.034 47.5339 458.004 47.5322C457.046 47.5304 455.918 47.5494 455.099 47.993C454.787 48.1618 454.865 48.6356 455.308 48.6072Z" fill="#AF1C9C"/>
<mask id="mask0_45_350" style="mask-type:luminance" maskUnits="userSpaceOnUse" x="482" y="19" width="4" height="31">
<path d="M482.62 19.1441H485.5V49.1352H482.62V19.1441Z" fill="white"/>
</mask>
<g mask="url(#mask0_45_350)">
<path d="M482.827 19.4508C482.549 20.5396 482.734 21.7387 482.915 22.831C483.103 23.9603 483.363 25.0801 483.57 26.2077C483.994 28.5318 484.01 30.9068 484.067 33.2507C484.124 35.5981 484.315 37.954 484.229 40.3014C484.188 41.4591 484.067 42.6169 483.855 43.7626C483.752 44.3242 483.677 44.8876 483.601 45.4518C483.531 45.9712 483.412 46.501 483.392 47.023C483.379 47.3185 483.348 47.614 483.323 47.9094C483.307 48.0895 483.276 48.2652 483.345 48.4426C483.361 48.484 483.377 48.5253 483.392 48.5658C483.475 48.7803 483.385 48.6899 483.4 48.5236C483.354 49.0534 484.39 49.0499 484.436 48.5236L484.438 48.5047C484.387 48.602 484.336 48.6985 484.286 48.795C484.764 48.4125 484.641 47.6157 484.666 47.1195C484.717 46.0944 484.861 45.0383 485.046 44.0236C485.471 41.7115 485.533 39.3891 485.389 37.059C485.244 34.7022 485.236 32.3419 485.092 29.9851C485.02 28.8204 484.923 27.6532 484.73 26.4972C484.541 25.3679 484.264 24.2506 484.015 23.1299C483.883 22.5416 483.778 21.9498 483.671 21.3588C483.554 20.7248 483.545 20.0839 483.431 19.4508C483.387 19.2053 482.886 19.2191 482.827 19.4508Z" fill="#AF1C9C"/>
</g>
<path d="M418.624 19.5817C418.152 19.4395 417.644 19.7996 417.313 20.0331C416.967 20.2768 416.235 20.6679 416.305 21.0874C416.32 21.1753 416.372 21.2632 416.493 21.2838C417.043 21.3786 417.487 20.8798 417.839 20.6128C418.171 20.3613 418.687 20.0727 418.719 19.6825C418.724 19.6334 418.676 19.5972 418.624 19.5817Z" fill="#AF1C9C"/>
<mask id="mask1_45_350" style="mask-type:luminance" maskUnits="userSpaceOnUse" x="415" y="20" width="5" height="33">
<path d="M415.5 20.6877H419.565V52.443H415.5V20.6877Z" fill="white"/>
</mask>
<g mask="url(#mask1_45_350)">
<path d="M416.296 20.8514C415.671 21.6827 415.623 22.7844 415.587 23.7285C415.547 24.795 415.716 25.8726 415.801 26.9356C415.981 29.227 415.839 31.5407 415.765 33.833C415.726 35.0286 415.695 36.2251 415.661 37.4216C415.625 38.6259 415.527 39.8267 415.538 41.0318C415.553 42.8434 415.769 44.667 415.687 46.4769C415.637 47.5536 415.585 48.6304 415.566 49.7089C415.559 50.1982 415.551 50.69 415.579 51.1802C415.598 51.5187 415.597 51.9882 416.02 52.182C415.923 52.0812 415.826 51.9813 415.729 51.8814C415.734 51.9072 415.739 51.9331 415.743 51.9598C415.796 52.2466 416.205 52.3371 416.505 52.3026C416.838 52.263 416.95 52.0804 417.115 51.8728C417.302 51.6359 417.55 51.424 417.789 51.2207C418.268 50.8149 418.867 50.4988 419.354 50.0957C419.751 49.7692 419.126 49.2713 418.726 49.5978C417.885 50.2835 416.877 50.8184 416.023 51.4903C416.219 51.4498 416.414 51.4093 416.609 51.368C416.574 51.3637 416.539 51.3594 416.505 51.3559C416.648 51.5566 416.792 51.7582 416.937 51.9598C416.976 51.7444 416.99 51.5627 416.788 51.3921C416.832 51.4291 416.93 51.6342 416.888 51.4937C416.838 51.3352 416.888 51.5523 416.867 51.4007C416.853 51.2939 416.845 51.1862 416.838 51.0794C416.801 50.5221 416.814 49.963 416.828 49.4048C416.855 48.3203 416.921 47.2366 416.968 46.1512C417.006 45.2709 416.905 44.3784 416.875 43.4972C416.834 42.2886 416.823 41.0809 416.812 39.8724C416.79 37.475 416.952 35.0777 416.995 32.6813C417.031 30.6406 417.108 28.5912 416.89 26.5566C416.788 25.6142 416.702 24.6727 416.619 23.7285C416.537 22.7887 416.66 21.8575 416.625 20.9229C416.621 20.7842 416.388 20.73 416.296 20.8514Z" fill="#AF1C9C"/>
</g>
<path d="M416.224 52.4913C417.413 52.586 418.673 52.4672 419.862 52.4052C421.077 52.3431 422.291 52.2785 423.507 52.2165C425.941 52.0907 428.375 51.9693 430.81 51.8659C433.244 51.7617 435.679 51.6773 438.115 51.6238C440.54 51.5696 442.978 51.4955 445.397 51.6626C445.792 51.6902 446.113 51.3267 445.995 51.0398C445.819 50.6091 446.05 50.3326 446.353 49.9768C446.535 49.7623 446.177 49.4875 445.909 49.6245C445.267 49.9527 444.828 50.566 444.776 51.1707C444.984 51.0053 445.19 50.8417 445.397 50.678C442.974 50.8046 440.542 50.7797 438.115 50.8417C435.678 50.9037 433.244 51.0002 430.81 51.113C428.374 51.2259 425.941 51.3568 423.507 51.492C422.291 51.5601 421.077 51.6282 419.862 51.6962C418.638 51.7651 417.337 51.7806 416.141 52.0029C415.773 52.0709 415.894 52.4646 416.224 52.4913Z" fill="#AF1C9C"/>
<mask id="mask2_45_350" style="mask-type:luminance" maskUnits="userSpaceOnUse" x="444" y="50" width="12" height="4">
<path d="M444.842 50.8994H455.12V53.5H444.842V50.8994Z" fill="white"/>
</mask>
<g mask="url(#mask2_45_350)">
<path d="M445.029 51.3689C445.438 51.8909 446.369 52.189 447.044 52.4457C447.953 52.792 448.941 53.0495 449.923 53.2244C450.881 53.3958 451.875 53.4303 452.839 53.2666C453.62 53.1348 454.52 52.6808 454.953 52.1424C455.183 51.8565 454.666 51.555 454.372 51.7867C454.106 51.996 453.863 52.1778 453.527 52.3173C453.216 52.4482 452.744 52.4732 452.397 52.4991C451.56 52.562 450.695 52.4414 449.882 52.2958C449.011 52.139 448.186 51.8883 447.358 51.6316C446.696 51.4266 445.996 51.0622 445.285 51.0157C445.061 51.0002 444.917 51.2259 445.029 51.3689Z" fill="#AF1C9C"/>
</g>
<path d="M455.266 48.465C455.158 48.6916 455.129 48.9552 455.074 49.1938C455.004 49.4944 454.9 49.7882 454.794 50.0819C454.582 50.6711 454.346 51.25 454.199 51.853C454.151 52.0451 454.264 52.2751 454.532 52.319C454.574 52.3259 454.617 52.3294 454.659 52.3328C454.854 52.3466 455.086 52.2079 455.12 52.0546C455.253 51.4524 455.46 50.8606 455.627 50.2637C455.778 49.7244 456.036 49.0069 455.804 48.465C455.711 48.2497 455.362 48.26 455.266 48.465Z" fill="#AF1C9C"/>
<path d="M454.919 51.8952C456.133 52.0769 457.393 52.0494 458.625 52.0563C459.964 52.0623 461.303 52.0666 462.643 52.0769C465.128 52.0942 467.617 52.0907 470.101 52.151C472.276 52.2036 474.456 52.319 476.633 52.2389C477.712 52.1993 478.791 52.1097 479.855 51.9555C480.731 51.828 481.995 51.6928 482.588 51.1165C482.787 50.9226 482.655 50.6711 482.342 50.6453C481.895 50.6091 481.482 50.7185 481.052 50.8141C480.559 50.9252 480.057 51.0105 479.553 51.0811C478.489 51.2284 477.409 51.2724 476.331 51.2999C474.208 51.3542 472.085 51.2629 469.962 51.219C467.523 51.1664 465.081 51.256 462.643 51.318C461.365 51.3508 460.085 51.3801 458.806 51.405C457.516 51.43 456.192 51.4076 454.919 51.5989C454.734 51.6273 454.733 51.8676 454.919 51.8952Z" fill="#AF1C9C"/>
<path d="M483.829 48.2669C482.659 48.4116 481.923 49.8648 481.746 50.6677C481.694 50.9037 481.775 51.1346 482.051 51.2629C482.334 51.3938 482.814 51.337 482.958 51.0734C483.193 50.6401 483.316 50.1741 483.53 49.733C483.723 49.3351 484.077 48.9982 484.241 48.5951C484.328 48.3815 484.063 48.2376 483.829 48.2669Z" fill="#AF1C9C"/>
</svg>
