<svg width="244" height="44" viewBox="0 0 244 44" fill="none" xmlns="http://www.w3.org/2000/svg">
<path d="M24.098 29V14.4545H26.2926V27.1108H32.8835V29H24.098ZM35.2166 29V18.0909H37.3402V29H35.2166ZM36.2891 16.4077C35.9197 16.4077 35.6025 16.2846 35.3374 16.0384C35.0769 15.7874 34.9467 15.4891 34.9467 15.1435C34.9467 14.7931 35.0769 14.4948 35.3374 14.2486C35.6025 13.9976 35.9197 13.8722 36.2891 13.8722C36.6584 13.8722 36.9732 13.9976 37.2337 14.2486C37.4988 14.4948 37.6314 14.7931 37.6314 15.1435C37.6314 15.4891 37.4988 15.7874 37.2337 16.0384C36.9732 16.2846 36.6584 16.4077 36.2891 16.4077ZM40.3675 29V14.4545H42.4911V19.8594H42.619C42.7421 19.6321 42.9196 19.3693 43.1516 19.071C43.3836 18.7727 43.7056 18.5123 44.1175 18.2898C44.5295 18.0625 45.074 17.9489 45.7511 17.9489C46.6317 17.9489 47.4177 18.1714 48.109 18.6165C48.8003 19.0616 49.3424 19.7031 49.7354 20.5412C50.1332 21.3793 50.332 22.3878 50.332 23.5668C50.332 24.7457 50.1355 25.7566 49.7425 26.5994C49.3496 27.4375 48.8098 28.0838 48.1232 28.5384C47.4367 28.9882 46.6531 29.2131 45.7724 29.2131C45.1095 29.2131 44.5674 29.1018 44.146 28.8793C43.7293 28.6567 43.4026 28.3963 43.1658 28.098C42.9291 27.7997 42.7468 27.5346 42.619 27.3026H42.4414V29H40.3675ZM42.4485 23.5455C42.4485 24.3125 42.5598 24.9848 42.7823 25.5625C43.0049 26.1402 43.3268 26.5923 43.7482 26.919C44.1696 27.241 44.6857 27.402 45.2965 27.402C45.931 27.402 46.4613 27.2339 46.8874 26.8977C47.3136 26.5568 47.6355 26.0952 47.8533 25.5128C48.0759 24.9304 48.1871 24.2746 48.1871 23.5455C48.1871 22.8258 48.0782 22.1795 47.8604 21.6065C47.6474 21.0336 47.3254 20.5814 46.8945 20.25C46.4684 19.9186 45.9357 19.7528 45.2965 19.7528C44.681 19.7528 44.1602 19.9115 43.734 20.2287C43.3126 20.5459 42.993 20.9886 42.7752 21.5568C42.5574 22.125 42.4485 22.7879 42.4485 23.5455ZM52.8871 14.4545H55.5504L60.1811 25.7614H60.3516L64.9822 14.4545H67.6456V29H65.5575V18.4744H65.4226L61.1328 28.9787H59.3999L55.1101 18.4673H54.9751V29H52.8871V14.4545ZM73.8406 29.2415C73.1493 29.2415 72.5243 29.1136 71.9656 28.858C71.4068 28.5975 70.9641 28.2211 70.6374 27.7287C70.3155 27.2363 70.1545 26.6326 70.1545 25.9176C70.1545 25.3021 70.2728 24.7955 70.5096 24.3977C70.7463 24 71.0659 23.6851 71.4684 23.4531C71.8709 23.2211 72.3207 23.0459 72.8178 22.9276C73.315 22.8092 73.8216 22.7192 74.3377 22.6577C74.9911 22.5819 75.5214 22.5204 75.9286 22.473C76.3358 22.4209 76.6317 22.3381 76.8164 22.2244C77.0011 22.1108 77.0934 21.9261 77.0934 21.6705V21.6207C77.0934 21.0005 76.9182 20.5199 76.5678 20.179C76.2222 19.8381 75.7061 19.6676 75.0195 19.6676C74.3046 19.6676 73.7411 19.8262 73.3292 20.1435C72.922 20.456 72.6403 20.804 72.484 21.1875L70.4883 20.733C70.725 20.0701 71.0707 19.535 71.5252 19.1278C71.9845 18.7159 72.5124 18.4176 73.109 18.233C73.7056 18.0436 74.333 17.9489 74.9911 17.9489C75.4267 17.9489 75.8884 18.0009 76.3761 18.1051C76.8685 18.2045 77.3278 18.3892 77.7539 18.6591C78.1848 18.929 78.5375 19.3149 78.8121 19.8168C79.0868 20.3139 79.2241 20.9602 79.2241 21.7557V29H77.1502V27.5085H77.065C76.9277 27.7831 76.7217 28.053 76.4471 28.3182C76.1725 28.5833 75.8197 28.8035 75.3888 28.9787C74.958 29.1539 74.4419 29.2415 73.8406 29.2415ZM74.3022 27.5369C74.8893 27.5369 75.3912 27.4209 75.8079 27.1889C76.2293 26.9569 76.5489 26.6539 76.7667 26.2798C76.9892 25.901 77.1005 25.4962 77.1005 25.0653V23.6591C77.0247 23.7348 76.878 23.8059 76.6602 23.8722C76.4471 23.9337 76.2032 23.9882 75.9286 24.0355C75.654 24.0781 75.3865 24.1184 75.1261 24.1562C74.8656 24.1894 74.6478 24.2178 74.4727 24.2415C74.0607 24.2936 73.6843 24.3812 73.3434 24.5043C73.0072 24.6274 72.7373 24.8049 72.5337 25.0369C72.3349 25.2642 72.2354 25.5672 72.2354 25.946C72.2354 26.4716 72.4296 26.8693 72.8178 27.1392C73.2061 27.4044 73.7009 27.5369 74.3022 27.5369ZM84.1761 22.5227V29H82.0526V18.0909H84.0909V19.8665H84.2259C84.4768 19.2888 84.8698 18.8248 85.4048 18.4744C85.9446 18.1241 86.6241 17.9489 87.4432 17.9489C88.1866 17.9489 88.8376 18.1051 89.3963 18.4176C89.955 18.7254 90.3883 19.1847 90.696 19.7955C91.0038 20.4062 91.1577 21.1615 91.1577 22.0611V29H89.0341V22.3168C89.0341 21.526 88.8281 20.9081 88.4162 20.4631C88.0043 20.0133 87.4384 19.7884 86.7188 19.7884C86.2263 19.7884 85.7884 19.8949 85.4048 20.108C85.026 20.321 84.7254 20.6335 84.5028 21.0455C84.285 21.4527 84.1761 21.9451 84.1761 22.5227ZM97.1804 29.2415C96.4891 29.2415 95.8641 29.1136 95.3054 28.858C94.7467 28.5975 94.304 28.2211 93.9773 27.7287C93.6553 27.2363 93.4943 26.6326 93.4943 25.9176C93.4943 25.3021 93.6127 24.7955 93.8494 24.3977C94.0862 24 94.4058 23.6851 94.8082 23.4531C95.2107 23.2211 95.6605 23.0459 96.1577 22.9276C96.6548 22.8092 97.1615 22.7192 97.6776 22.6577C98.331 22.5819 98.8613 22.5204 99.2685 22.473C99.6757 22.4209 99.9716 22.3381 100.156 22.2244C100.341 22.1108 100.433 21.9261 100.433 21.6705V21.6207C100.433 21.0005 100.258 20.5199 99.9077 20.179C99.562 19.8381 99.0459 19.6676 98.3594 19.6676C97.6444 19.6676 97.081 19.8262 96.669 20.1435C96.2618 20.456 95.9801 20.804 95.8239 21.1875L93.8281 20.733C94.0649 20.0701 94.4105 19.535 94.8651 19.1278C95.3243 18.7159 95.8523 18.4176 96.4489 18.233C97.0455 18.0436 97.6728 17.9489 98.331 17.9489C98.7666 17.9489 99.2282 18.0009 99.7159 18.1051C100.208 18.2045 100.668 18.3892 101.094 18.6591C101.525 18.929 101.877 19.3149 102.152 19.8168C102.427 20.3139 102.564 20.9602 102.564 21.7557V29H100.49V27.5085H100.405C100.268 27.7831 100.062 28.053 99.7869 28.3182C99.5123 28.5833 99.1596 28.8035 98.7287 28.9787C98.2978 29.1539 97.7817 29.2415 97.1804 29.2415ZM97.642 27.5369C98.2292 27.5369 98.7311 27.4209 99.1477 27.1889C99.5691 26.9569 99.8887 26.6539 100.107 26.2798C100.329 25.901 100.44 25.4962 100.44 25.0653V23.6591C100.365 23.7348 100.218 23.8059 100 23.8722C99.7869 23.9337 99.5431 23.9882 99.2685 24.0355C98.9938 24.0781 98.7263 24.1184 98.4659 24.1562C98.2055 24.1894 97.9877 24.2178 97.8125 24.2415C97.4006 24.2936 97.0241 24.3812 96.6832 24.5043C96.3471 24.6274 96.0772 24.8049 95.8736 25.0369C95.6747 25.2642 95.5753 25.5672 95.5753 25.946C95.5753 26.4716 95.7694 26.8693 96.1577 27.1392C96.5459 27.4044 97.0407 27.5369 97.642 27.5369ZM109.966 33.3182C109.1 33.3182 108.354 33.2045 107.729 32.9773C107.109 32.75 106.602 32.4493 106.209 32.0753C105.816 31.7012 105.523 31.2917 105.328 30.8466L107.154 30.0938C107.282 30.3021 107.452 30.5223 107.665 30.7543C107.883 30.991 108.176 31.1922 108.546 31.358C108.92 31.5237 109.4 31.6065 109.988 31.6065C110.792 31.6065 111.458 31.41 111.983 31.017C112.509 30.6288 112.772 30.0085 112.772 29.1562V27.0114H112.637C112.509 27.2434 112.324 27.5014 112.083 27.7855C111.846 28.0696 111.519 28.3158 111.103 28.5241C110.686 28.7325 110.144 28.8366 109.476 28.8366C108.614 28.8366 107.838 28.6354 107.147 28.233C106.46 27.8258 105.916 27.2268 105.513 26.4361C105.115 25.6406 104.917 24.6629 104.917 23.5028C104.917 22.3428 105.113 21.3485 105.506 20.5199C105.904 19.6913 106.448 19.0568 107.14 18.6165C107.831 18.1714 108.614 17.9489 109.49 17.9489C110.167 17.9489 110.714 18.0625 111.131 18.2898C111.548 18.5123 111.872 18.7727 112.104 19.071C112.341 19.3693 112.523 19.6321 112.651 19.8594H112.807V18.0909H114.888V29.2415C114.888 30.179 114.67 30.9484 114.235 31.5497C113.799 32.151 113.21 32.5961 112.466 32.8849C111.728 33.1738 110.894 33.3182 109.966 33.3182ZM109.945 27.0753C110.556 27.0753 111.072 26.9332 111.493 26.6491C111.919 26.3603 112.241 25.9484 112.459 25.4134C112.682 24.8736 112.793 24.2273 112.793 23.4744C112.793 22.7405 112.684 22.0942 112.466 21.5355C112.248 20.9768 111.929 20.5412 111.507 20.2287C111.086 19.9115 110.565 19.7528 109.945 19.7528C109.306 19.7528 108.773 19.9186 108.347 20.25C107.921 20.5767 107.599 21.0218 107.381 21.5852C107.168 22.1487 107.061 22.7784 107.061 23.4744C107.061 24.1894 107.17 24.8168 107.388 25.3565C107.606 25.8963 107.928 26.3177 108.354 26.6207C108.785 26.9238 109.315 27.0753 109.945 27.0753ZM122.438 29.2202C121.363 29.2202 120.437 28.9905 119.661 28.5312C118.889 28.0672 118.292 27.4162 117.871 26.5781C117.454 25.7353 117.246 24.7481 117.246 23.6165C117.246 22.4991 117.454 21.5142 117.871 20.6619C118.292 19.8097 118.88 19.1444 119.632 18.6662C120.39 18.188 121.275 17.9489 122.289 17.9489C122.904 17.9489 123.501 18.0507 124.078 18.2543C124.656 18.4579 125.175 18.7775 125.634 19.2131C126.093 19.6487 126.455 20.2145 126.721 20.9105C126.986 21.6018 127.118 22.4422 127.118 23.4318V24.1847H118.446V22.5938H125.037C125.037 22.035 124.924 21.5402 124.696 21.1094C124.469 20.6738 124.15 20.3305 123.738 20.0795C123.33 19.8286 122.852 19.7031 122.303 19.7031C121.706 19.7031 121.185 19.8499 120.74 20.1435C120.3 20.4323 119.959 20.8111 119.718 21.2798C119.481 21.7438 119.363 22.2481 119.363 22.7926V24.0355C119.363 24.7647 119.49 25.3849 119.746 25.8963C120.007 26.4077 120.369 26.7983 120.833 27.0682C121.297 27.3333 121.839 27.4659 122.459 27.4659C122.862 27.4659 123.229 27.4091 123.56 27.2955C123.891 27.1771 124.178 27.0019 124.419 26.7699C124.661 26.5379 124.846 26.2514 124.973 25.9105L126.983 26.2727C126.822 26.8646 126.533 27.383 126.117 27.8281C125.705 28.2685 125.186 28.6117 124.561 28.858C123.941 29.0994 123.233 29.2202 122.438 29.2202ZM129.474 29V18.0909H131.513V19.8665H131.648C131.875 19.2652 132.247 18.7964 132.763 18.4602C133.279 18.1193 133.897 17.9489 134.616 17.9489C135.346 17.9489 135.956 18.1193 136.449 18.4602C136.946 18.8011 137.313 19.2699 137.55 19.8665H137.663C137.924 19.2841 138.338 18.8201 138.906 18.4744C139.474 18.1241 140.152 17.9489 140.938 17.9489C141.927 17.9489 142.734 18.259 143.359 18.8793C143.989 19.4995 144.304 20.4347 144.304 21.6847V29H142.18V21.8835C142.18 21.1449 141.979 20.6098 141.577 20.2784C141.174 19.947 140.694 19.7812 140.135 19.7812C139.444 19.7812 138.906 19.9943 138.523 20.4205C138.139 20.8419 137.947 21.384 137.947 22.0469V29H135.831V21.7486C135.831 21.1567 135.646 20.6809 135.277 20.321C134.908 19.9612 134.427 19.7812 133.835 19.7812C133.433 19.7812 133.061 19.8878 132.72 20.1009C132.384 20.3092 132.112 20.6004 131.903 20.9744C131.7 21.3485 131.598 21.7817 131.598 22.2741V29H129.474ZM151.852 29.2202C150.777 29.2202 149.851 28.9905 149.075 28.5312C148.303 28.0672 147.707 27.4162 147.285 26.5781C146.868 25.7353 146.66 24.7481 146.66 23.6165C146.66 22.4991 146.868 21.5142 147.285 20.6619C147.707 19.8097 148.294 19.1444 149.047 18.6662C149.804 18.188 150.69 17.9489 151.703 17.9489C152.318 17.9489 152.915 18.0507 153.493 18.2543C154.07 18.4579 154.589 18.7775 155.048 19.2131C155.507 19.6487 155.869 20.2145 156.135 20.9105C156.4 21.6018 156.532 22.4422 156.532 23.4318V24.1847H147.86V22.5938H154.451C154.451 22.035 154.338 21.5402 154.11 21.1094C153.883 20.6738 153.564 20.3305 153.152 20.0795C152.744 19.8286 152.266 19.7031 151.717 19.7031C151.12 19.7031 150.6 19.8499 150.154 20.1435C149.714 20.4323 149.373 20.8111 149.132 21.2798C148.895 21.7438 148.777 22.2481 148.777 22.7926V24.0355C148.777 24.7647 148.904 25.3849 149.16 25.8963C149.421 26.4077 149.783 26.7983 150.247 27.0682C150.711 27.3333 151.253 27.4659 151.873 27.4659C152.276 27.4659 152.643 27.4091 152.974 27.2955C153.306 27.1771 153.592 27.0019 153.833 26.7699C154.075 26.5379 154.26 26.2514 154.387 25.9105L156.397 26.2727C156.236 26.8646 155.948 27.383 155.531 27.8281C155.119 28.2685 154.6 28.6117 153.975 28.858C153.355 29.0994 152.647 29.2202 151.852 29.2202ZM161.012 22.5227V29H158.888V18.0909H160.927V19.8665H161.062C161.313 19.2888 161.706 18.8248 162.241 18.4744C162.781 18.1241 163.46 17.9489 164.279 17.9489C165.022 17.9489 165.674 18.1051 166.232 18.4176C166.791 18.7254 167.224 19.1847 167.532 19.7955C167.84 20.4062 167.994 21.1615 167.994 22.0611V29H165.87V22.3168C165.87 21.526 165.664 20.9081 165.252 20.4631C164.84 20.0133 164.274 19.7884 163.555 19.7884C163.062 19.7884 162.624 19.8949 162.241 20.108C161.862 20.321 161.561 20.6335 161.339 21.0455C161.121 21.4527 161.012 21.9451 161.012 22.5227ZM175.934 18.0909V19.7955H169.975V18.0909H175.934ZM171.573 15.4773H173.697V25.7969C173.697 26.2088 173.758 26.5189 173.881 26.7273C174.004 26.9309 174.163 27.0705 174.357 27.1463C174.556 27.2173 174.772 27.2528 175.004 27.2528C175.174 27.2528 175.323 27.241 175.451 27.2173C175.579 27.1937 175.678 27.1747 175.749 27.1605L176.133 28.9148C176.01 28.9621 175.835 29.0095 175.607 29.0568C175.38 29.1089 175.096 29.1373 174.755 29.142C174.196 29.1515 173.675 29.0521 173.192 28.8438C172.71 28.6354 172.319 28.3134 172.021 27.8778C171.722 27.4422 171.573 26.8954 171.573 26.2372V15.4773Z" fill="#363636"/>
<path d="M194.328 13.1676C193.513 12.9849 192.712 13.1327 191.908 13.3084C191.783 13.3353 191.68 13.4722 191.686 13.6006C191.707 13.9873 191.792 14.3581 191.814 14.7378C191.861 15.5113 191.907 16.2847 191.953 17.0576C191.989 17.6783 192.022 18.2999 192.081 18.9191C192.143 19.5611 192.134 20.2191 192.145 20.8636C192.156 21.5236 192.157 22.1845 192.155 22.845C192.146 25.6446 192.07 28.4487 192.25 31.2453C192.262 31.4444 192.419 31.5474 192.607 31.5185C192.647 31.5126 192.686 31.5071 192.725 31.5016C192.746 31.4986 192.766 31.4956 192.787 31.4932C192.874 31.4812 192.725 31.5011 192.798 31.4912C192.885 31.4797 192.973 31.4678 193.061 31.4558C193.125 31.4474 192.989 31.4653 193.056 31.4563C193.074 31.4538 193.094 31.4514 193.113 31.4489C193.153 31.4434 193.194 31.4384 193.234 31.4329C193.334 31.4205 193.433 31.4081 193.533 31.3961C193.764 31.3687 193.995 31.3434 194.227 31.3205C195.51 31.1906 196.802 31.1169 198.092 31.1259C199.527 31.1358 200.978 31.2413 202.37 31.6061C202.995 31.7704 203.567 31.9779 204.119 32.295C204.594 32.5687 205.011 32.9241 205.297 33.372C205.315 33.3999 205.332 33.4287 205.35 33.4571C205.554 33.805 206.094 33.4895 205.888 33.1411C205.244 32.0456 204.075 31.4285 202.898 31.0671C201.506 30.6391 200.025 30.5167 198.576 30.4903C196.552 30.453 194.484 30.6003 192.489 30.9651C192.478 30.9671 192.468 30.9691 192.457 30.9711C192.576 31.0626 192.695 31.1537 192.815 31.2453C192.554 28.6408 192.626 26.0174 192.632 23.4039C192.636 22.0885 192.628 20.7725 192.571 19.4586C192.541 18.7663 192.475 18.075 192.43 17.3836C192.376 16.557 192.33 15.7298 192.29 14.9021C192.269 14.4691 192.311 14.0341 192.291 13.6006C192.217 13.6976 192.142 13.7957 192.068 13.8927C192.797 13.7389 193.512 13.6533 194.258 13.6902C194.557 13.7051 194.62 13.2328 194.328 13.1676Z" fill="#AF1C9C"/>
<path d="M205.885 32.9972C205.791 32.724 205.726 32.5413 205.57 32.298C205.414 32.0521 205.241 31.8177 205.062 31.5867C204.677 31.0875 204.239 30.6286 203.764 30.2131C202.594 29.1888 201.177 28.479 199.666 28.1247C197.486 27.6125 195.226 27.8748 193.096 28.4915C193.225 28.6209 193.355 28.7508 193.484 28.8802C194.205 26.3464 194.37 23.6926 194.365 21.0692C194.362 19.8169 194.29 18.5672 194.275 17.316C194.265 16.3614 194.412 15.4077 194.507 14.4596C194.687 12.6733 194.766 10.7039 193.529 9.25508C193.455 9.43276 193.381 9.61094 193.309 9.78862C195.573 9.49099 197.894 9.73786 200.054 10.4735C202.105 11.1718 203.974 12.3543 205.521 13.8698C205.872 14.2132 206.41 13.6747 206.059 13.3308C204.468 11.7725 202.517 10.6203 200.426 9.8797C198.265 9.11423 195.855 8.80266 193.579 9.12767C193.462 9.14459 193.344 9.15853 193.225 9.17495C192.973 9.20979 192.954 9.54176 193.088 9.69705C193.687 10.3913 193.881 11.332 193.932 12.2259C193.99 13.2328 193.867 14.2436 193.758 15.243C193.706 15.7213 193.656 16.1996 193.627 16.6799C193.598 17.1746 193.62 17.6658 193.637 18.1601C193.682 19.4725 193.723 20.7855 193.707 22.0989C193.682 24.3272 193.489 26.5624 192.876 28.712C192.811 28.9424 193.034 29.1674 193.264 29.1007C195.257 28.5233 197.399 28.2884 199.442 28.7418C200.908 29.0673 202.27 29.7621 203.414 30.7356C203.863 31.1184 204.275 31.5449 204.652 31.9988C204.824 32.2064 204.965 32.3935 205.115 32.6021C205.27 32.8191 205.413 32.9674 205.59 33.1699C205.705 33.3018 205.943 33.163 205.885 32.9972Z" fill="#AF1C9C"/>
<path d="M205.835 13.8519H205.857C205.901 13.8524 205.901 13.7842 205.857 13.7837C205.806 13.7827 205.755 13.7822 205.704 13.7817C205.657 13.7807 205.657 13.8534 205.704 13.8539C205.719 13.8539 205.734 13.8539 205.744 13.8409C205.756 13.8255 205.756 13.8101 205.744 13.7946C205.734 13.7812 205.719 13.7812 205.704 13.7817C205.657 13.7817 205.657 13.8549 205.704 13.8539C205.755 13.8534 205.806 13.8529 205.857 13.8519C205.901 13.8514 205.901 13.7827 205.857 13.7837H205.835C205.791 13.7847 205.791 13.8509 205.835 13.8519Z" fill="#AF1C9C"/>
<path d="M217.536 14.0844C217.858 14.062 218.091 13.9291 218.372 13.7937C218.298 13.829 218.393 13.7877 218.409 13.7822C218.443 13.7713 218.478 13.7648 218.513 13.7584C218.45 13.7698 218.573 13.7569 218.586 13.7564C218.636 13.7549 218.686 13.7589 218.735 13.7623C219.045 13.7857 219.357 13.8997 219.648 13.9983C219.574 13.9007 219.501 13.8036 219.427 13.7061C219.408 14.0829 219.453 14.4621 219.434 14.8379C219.396 15.6073 219.356 16.3763 219.307 17.1453C219.267 17.7624 219.232 18.3816 219.17 18.9967C219.105 19.6393 219.111 20.2982 219.098 20.9433C219.084 21.6042 219.081 22.2657 219.08 22.9271C219.079 25.7023 219.18 28.492 218.901 31.2578C219.018 31.1677 219.136 31.0776 219.254 30.988C217.458 30.658 215.606 30.5246 213.783 30.5027C212.311 30.4858 210.823 30.5625 209.378 30.8646C208.154 31.1199 206.872 31.5673 205.979 32.4866C205.788 32.6837 205.62 32.9057 205.478 33.1416C205.27 33.489 205.811 33.804 206.017 33.4576C206.286 33.0087 206.68 32.6608 207.135 32.3831C207.673 32.0546 208.223 31.8525 208.834 31.6798C210.211 31.2901 211.656 31.1756 213.081 31.1453C214.414 31.1169 215.749 31.1826 217.076 31.2991C217.535 31.3394 217.993 31.3877 218.45 31.4439C218.492 31.4489 218.532 31.4539 218.573 31.4593C218.59 31.4613 218.66 31.4708 218.572 31.4588C218.61 31.4643 218.648 31.4683 218.686 31.4733C218.754 31.4812 218.824 31.4897 218.893 31.4986C218.94 31.5046 218.989 31.5111 219.036 31.5171C218.956 31.5066 219.015 31.5146 219.069 31.522C219.081 31.5235 219.093 31.5255 219.106 31.527C219.291 31.5544 219.445 31.4544 219.458 31.2578C219.628 28.6438 219.576 26.0234 219.56 23.4069C219.552 22.0905 219.556 20.7745 219.611 19.4591C219.639 18.7802 219.704 18.1023 219.746 17.4235C219.797 16.6023 219.845 15.781 219.895 14.9593C219.92 14.5368 220.007 14.1341 220.031 13.7061C220.039 13.5662 219.932 13.4562 219.81 13.4139C219.326 13.2472 218.737 13.0362 218.223 13.1959C217.933 13.287 217.725 13.4986 217.466 13.5608C217.178 13.6309 217.235 14.1048 217.536 14.0844Z" fill="#AF1C9C"/>
<path d="M205.868 33.1341C205.937 33.0102 206.05 32.8942 206.109 32.7738C206.18 32.627 206.267 32.4851 206.362 32.3522C206.555 32.0845 206.765 31.8406 207.001 31.6091C207.549 31.0741 208.195 30.663 208.863 30.2952C210.379 29.459 212.102 28.9409 213.816 28.7219C215.324 28.5293 217.006 28.5144 218.427 29.1306C218.665 29.2331 218.975 29.0664 218.89 28.7737C218.154 26.2558 218.016 23.6234 218.041 21.0139C218.053 19.7881 218.145 18.5607 218.142 17.3354C218.139 16.3788 217.987 15.4257 217.892 14.4751C217.743 12.972 217.596 11.0787 218.675 9.86031C218.87 9.64033 218.722 9.36261 218.455 9.32727C213.925 8.72206 209.142 10.1251 205.73 13.2079C205.634 13.2945 205.54 13.3836 205.446 13.4727C205.091 13.8121 205.629 14.3501 205.984 14.0117C209.288 10.8582 213.935 9.37256 218.455 9.95189C218.381 9.77421 218.309 9.59653 218.235 9.41885C216.878 10.9672 217.074 13.1123 217.284 15.0181C217.386 15.9493 217.498 16.875 217.464 17.8137C217.417 19.1167 217.377 20.4192 217.386 21.7227C217.401 24.15 217.6 26.6037 218.283 28.9414C218.437 28.823 218.591 28.704 218.745 28.5851C217.237 27.9306 215.534 27.8649 213.921 28.054C212.146 28.2631 210.395 28.7757 208.803 29.5949C208.018 29.9981 207.273 30.5087 206.641 31.1269C206.362 31.4006 206.111 31.7077 205.898 32.0357C205.802 32.184 205.723 32.3433 205.646 32.502C205.571 32.6558 205.56 32.8753 205.538 33.044C205.515 33.2252 205.788 33.2785 205.868 33.1341Z" fill="#AF1C9C"/>
<path d="M205.745 13.8882L205.723 13.8877C205.679 13.8872 205.679 13.9559 205.723 13.9564C205.774 13.9569 205.826 13.9579 205.877 13.9584C205.924 13.9589 205.924 13.8862 205.877 13.8858C205.858 13.8858 205.844 13.8882 205.832 13.9057C205.825 13.9141 205.825 13.93 205.832 13.9385C205.844 13.9559 205.858 13.9589 205.877 13.9584C205.924 13.9579 205.924 13.8848 205.877 13.8858C205.826 13.8867 205.774 13.8872 205.723 13.8877C205.679 13.8887 205.679 13.9569 205.723 13.9564L205.745 13.9559C205.789 13.9554 205.789 13.8887 205.745 13.8882Z" fill="#AF1C9C"/>
<path d="M205.652 13.6055C205.472 16.3574 205.947 19.1077 205.998 21.8565C206.023 23.2332 206.016 24.6188 205.947 25.9935C205.902 26.9098 205.819 27.827 205.748 28.7418C205.686 29.5307 205.625 30.3201 205.584 31.1099C205.551 31.738 205.497 32.3751 205.542 33.0042C205.561 33.257 205.959 33.2525 205.932 33.0042C205.851 32.2517 205.907 31.4772 205.958 30.7242C206.018 29.8403 206.091 28.9553 206.196 28.0749C206.489 25.6282 206.51 23.1675 206.362 20.7083C206.219 18.3387 205.981 15.9741 205.819 13.6055C205.812 13.498 205.66 13.4975 205.652 13.6055Z" fill="#AF1C9C"/>
<path d="M190.858 15.6103C191.076 15.677 191.314 15.665 191.54 15.6745C191.724 15.6815 191.922 15.6944 192.104 15.6526C192.34 15.5993 192.34 15.228 192.104 15.1748C191.922 15.133 191.724 15.1459 191.54 15.1529C191.314 15.1623 191.076 15.1504 190.858 15.2171C190.665 15.2768 190.665 15.5506 190.858 15.6103Z" fill="#AF1C9C"/>
<path d="M219.811 15.7482C219.955 15.7606 220.089 15.688 220.169 15.5715C220.116 15.6486 220.056 15.6775 219.966 15.6894C219.987 15.687 220.007 15.6885 220.027 15.6894C220.158 15.6924 220.276 15.7163 220.395 15.6417C220.565 15.5352 220.565 15.2923 220.395 15.1858C220.249 15.0942 219.973 15.1171 219.814 15.1907C219.763 15.2141 219.728 15.2659 219.7 15.3117C219.751 15.2276 219.732 15.2704 219.709 15.2948C219.69 15.3157 219.666 15.3311 219.648 15.3525C219.509 15.5108 219.607 15.7313 219.811 15.7482Z" fill="#AF1C9C"/>
<path d="M190.85 15.4137C190.86 16.0085 190.952 16.5982 190.977 17.1945C191.001 17.8201 190.993 18.4467 190.969 19.0728C190.921 20.3161 190.803 21.5554 190.739 22.7977C190.596 25.5376 190.692 28.2804 190.669 31.0213C190.664 31.6439 190.693 32.2666 190.691 32.8892C190.69 33.1759 191.136 33.1759 191.133 32.8892C191.122 31.52 190.982 30.1498 191.046 28.7791C191.078 28.0898 191.042 27.392 191.042 26.7017C191.042 26.0124 191.047 25.3231 191.06 24.6342C191.106 22.1089 191.429 19.572 191.249 17.0472C191.209 16.4917 191.169 15.9204 190.972 15.3968C190.949 15.3341 190.849 15.339 190.85 15.4137Z" fill="#AF1C9C"/>
<path d="M190.862 33.1888C191.925 33.3292 192.999 33.2615 194.065 33.1898C195.183 33.1142 196.298 32.9952 197.413 32.8952C198.501 32.7976 199.592 32.7195 200.684 32.708C201.223 32.7026 201.761 32.7165 202.299 32.7518C202.578 32.7703 202.857 32.7956 203.134 32.8275C203.411 32.8593 203.668 32.9221 203.941 32.8464C204.12 32.7976 204.131 32.5707 203.99 32.4746C203.774 32.3273 203.539 32.3099 203.286 32.277C203.008 32.2412 202.73 32.2153 202.451 32.1934C201.915 32.1531 201.377 32.1426 200.839 32.1461C199.721 32.1531 198.604 32.2402 197.492 32.3437C196.375 32.4477 195.259 32.5717 194.142 32.6712C193.051 32.7693 191.955 32.8011 190.862 32.8753C190.656 32.8892 190.666 33.1629 190.862 33.1888Z" fill="#AF1C9C"/>
<path d="M203.561 32.5547C203.535 32.7683 203.769 33.0171 203.91 33.153C204.097 33.3332 204.3 33.4984 204.529 33.6213C205.015 33.8831 205.582 33.8821 206.113 33.799C206.591 33.7234 207.044 33.5084 207.407 33.1898C207.699 32.934 208.071 32.2825 207.754 31.9276C207.657 31.8186 207.488 31.8609 207.415 31.9714C207.314 32.1242 207.365 32.3243 207.294 32.492C207.226 32.6528 207.109 32.7767 206.977 32.8867C206.695 33.1211 206.265 33.2072 205.914 33.2635C205.507 33.3292 205.073 33.2879 204.703 33.0982C204.512 33.0002 204.349 32.8603 204.189 32.7185C204.054 32.6 203.799 32.4288 203.613 32.4866C203.58 32.4965 203.565 32.5219 203.561 32.5547Z" fill="#AF1C9C"/>
<path d="M207.698 32.173C208.134 32.1392 208.561 32.0904 208.999 32.0974C209.467 32.1054 209.934 32.1501 210.402 32.1666C210.962 32.1855 211.528 32.1397 212.088 32.1268C212.701 32.1128 213.316 32.0999 213.929 32.1188C215.075 32.1541 216.222 32.2213 217.366 32.295C217.929 32.3308 218.493 32.3642 219.056 32.3895C219.354 32.403 219.652 32.4129 219.951 32.4199C220.248 32.4274 220.554 32.4508 220.842 32.3612C221.075 32.289 221.074 31.9615 220.842 31.8879C220.58 31.8057 220.304 31.8167 220.033 31.8092C219.734 31.8013 219.435 31.7878 219.137 31.7729C218.546 31.744 217.956 31.7017 217.366 31.6629C216.192 31.5847 215.022 31.52 213.845 31.526C213.259 31.529 212.674 31.532 212.088 31.5484C211.506 31.5648 210.922 31.6121 210.34 31.6002C209.87 31.5902 209.401 31.5529 208.931 31.5519C208.493 31.5509 207.977 31.5619 207.602 31.8182C207.46 31.9157 207.496 32.1895 207.698 32.173Z" fill="#AF1C9C"/>
<mask id="mask0_45_350" style="mask-type:luminance" maskUnits="userSpaceOnUse" x="220" y="15" width="2" height="18">
<path d="M220.184 15.1499H221.5V32.4781H220.184V15.1499Z" fill="white"/>
</mask>
<g mask="url(#mask0_45_350)">
<path d="M220.278 15.3271C220.151 15.9562 220.236 16.649 220.318 17.2801C220.404 17.9326 220.523 18.5796 220.618 19.2311C220.812 20.5739 220.819 21.9461 220.845 23.3004C220.871 24.6566 220.958 26.0179 220.919 27.3741C220.9 28.0431 220.845 28.712 220.748 29.3739C220.701 29.6984 220.667 30.0239 220.632 30.3499C220.6 30.65 220.546 30.9561 220.536 31.2577C220.53 31.4285 220.516 31.5992 220.505 31.7699C220.498 31.8739 220.483 31.9754 220.515 32.078C220.522 32.1019 220.529 32.1257 220.536 32.1491C220.574 32.2731 220.533 32.2208 220.54 32.1248C220.519 32.4308 220.993 32.4289 221.013 32.1248L221.014 32.1138C220.991 32.17 220.968 32.2258 220.945 32.2815C221.164 32.0605 221.107 31.6002 221.119 31.3135C221.142 30.7212 221.208 30.111 221.293 29.5247C221.487 28.1889 221.515 26.8471 221.449 25.5008C221.383 24.139 221.379 22.7753 221.313 21.4136C221.281 20.7407 221.236 20.0663 221.148 19.3984C221.062 18.7459 220.935 18.1003 220.821 17.4528C220.761 17.1129 220.713 16.771 220.664 16.4295C220.611 16.0632 220.606 15.6929 220.554 15.3271C220.534 15.1853 220.305 15.1932 220.278 15.3271Z" fill="#AF1C9C"/>
</g>
<path d="M190.928 15.4028C190.712 15.3207 190.48 15.5287 190.329 15.6636C190.171 15.8044 189.836 16.0304 189.868 16.2728C189.875 16.3235 189.899 16.3743 189.954 16.3863C190.205 16.441 190.408 16.1528 190.569 15.9985C190.721 15.8532 190.957 15.6865 190.972 15.461C190.974 15.4326 190.952 15.4117 190.928 15.4028Z" fill="#AF1C9C"/>
<mask id="mask1_45_350" style="mask-type:luminance" maskUnits="userSpaceOnUse" x="189" y="16" width="3" height="19">
<path d="M189.5 16.0418H191.358V34.3893H189.5V16.0418Z" fill="white"/>
</mask>
<g mask="url(#mask1_45_350)">
<path d="M189.864 16.1364C189.578 16.6167 189.556 17.2532 189.54 17.7987C189.521 18.4149 189.599 19.0375 189.637 19.6517C189.72 20.9756 189.655 22.3124 189.621 23.6368C189.603 24.3277 189.589 25.019 189.573 25.7103C189.557 26.4061 189.512 27.0999 189.517 27.7962C189.524 28.8429 189.623 29.8965 189.585 30.9422C189.562 31.5643 189.539 32.1865 189.53 32.8096C189.527 33.0923 189.523 33.3765 189.536 33.6597C189.545 33.8553 189.544 34.1265 189.738 34.2385C189.693 34.1803 189.649 34.1226 189.605 34.0648C189.607 34.0798 189.609 34.0947 189.611 34.1101C189.635 34.2758 189.822 34.3281 189.959 34.3082C190.112 34.2853 190.163 34.1798 190.238 34.0598C190.324 33.923 190.437 33.8005 190.547 33.6831C190.765 33.4487 191.039 33.266 191.262 33.0331C191.443 32.8444 191.158 32.5568 190.975 32.7454C190.59 33.1416 190.129 33.4506 189.739 33.8389C189.829 33.8155 189.918 33.7921 190.007 33.7682C189.991 33.7657 189.975 33.7632 189.959 33.7612C190.025 33.8772 190.091 33.9936 190.157 34.1101C190.175 33.9857 190.181 33.8807 190.089 33.7821C190.109 33.8035 190.154 33.922 190.134 33.8408C190.112 33.7493 190.134 33.8747 190.125 33.7871C190.119 33.7254 190.115 33.6632 190.112 33.6015C190.095 33.2794 190.101 32.9564 190.107 32.6339C190.12 32.0073 190.15 31.3812 190.171 30.7541C190.188 30.2454 190.142 29.7298 190.128 29.2206C190.11 28.5223 190.105 27.8246 190.1 27.1263C190.09 25.7412 190.164 24.356 190.184 22.9714C190.2 21.7923 190.235 20.6083 190.135 19.4327C190.089 18.8882 190.05 18.3442 190.011 17.7987C189.974 17.2557 190.03 16.7177 190.014 16.1777C190.012 16.0976 189.906 16.0662 189.864 16.1364Z" fill="#AF1C9C"/>
</g>
<path d="M189.831 34.4172C190.374 34.472 190.95 34.4033 191.494 34.3674C192.05 34.3316 192.605 34.2943 193.16 34.2584C194.273 34.1858 195.386 34.1156 196.499 34.0559C197.612 33.9957 198.725 33.9469 199.838 33.916C200.947 33.8847 202.062 33.8419 203.167 33.9384C203.348 33.9543 203.495 33.7443 203.44 33.5786C203.36 33.3297 203.466 33.17 203.604 32.9644C203.687 32.8405 203.524 32.6817 203.401 32.7608C203.108 32.9505 202.907 33.3048 202.883 33.6542C202.978 33.5587 203.072 33.4641 203.167 33.3695C202.06 33.4427 200.948 33.4283 199.838 33.4641C198.724 33.4999 197.612 33.5557 196.499 33.6209C195.385 33.6861 194.273 33.7617 193.16 33.8399C192.605 33.8792 192.05 33.9185 191.494 33.9578C190.935 33.9976 190.34 34.0066 189.793 34.135C189.625 34.1743 189.68 34.4018 189.831 34.4172Z" fill="#AF1C9C"/>
<mask id="mask2_45_350" style="mask-type:luminance" maskUnits="userSpaceOnUse" x="202" y="33" width="6" height="2">
<path d="M202.914 33.4974H207.612V35H202.914V33.4974Z" fill="white"/>
</mask>
<g mask="url(#mask2_45_350)">
<path d="M202.999 33.7687C203.186 34.0703 203.612 34.2425 203.92 34.3908C204.336 34.5909 204.787 34.7397 205.236 34.8408C205.674 34.9398 206.128 34.9597 206.569 34.8652C206.926 34.789 207.338 34.5267 207.536 34.2156C207.641 34.0504 207.404 33.8762 207.27 34.0101C207.148 34.131 207.037 34.2361 206.884 34.3167C206.742 34.3923 206.526 34.4068 206.367 34.4217C205.985 34.458 205.589 34.3884 205.217 34.3042C204.819 34.2137 204.442 34.0688 204.063 33.9205C203.761 33.8021 203.441 33.5915 203.116 33.5646C203.013 33.5557 202.948 33.6861 202.999 33.7687Z" fill="#AF1C9C"/>
</g>
<path d="M207.679 32.0909C207.629 32.2218 207.616 32.3741 207.591 32.512C207.559 32.6857 207.511 32.8554 207.463 33.0251C207.366 33.3655 207.258 33.7 207.191 34.0484C207.169 34.1594 207.221 34.2923 207.343 34.3177C207.363 34.3216 207.382 34.3236 207.401 34.3256C207.491 34.3336 207.596 34.2535 207.612 34.1649C207.673 33.817 207.767 33.475 207.844 33.1301C207.913 32.8186 208.031 32.404 207.925 32.0909C207.882 31.9665 207.723 31.9725 207.679 32.0909Z" fill="#AF1C9C"/>
<path d="M207.52 34.0728C208.075 34.1778 208.651 34.1619 209.214 34.1658C209.826 34.1693 210.438 34.1718 211.051 34.1778C212.187 34.1877 213.325 34.1857 214.46 34.2206C215.455 34.2509 216.451 34.3176 217.446 34.2713C217.94 34.2485 218.433 34.1967 218.92 34.1076C219.32 34.0339 219.898 33.9558 220.169 33.6228C220.26 33.5109 220.199 33.3655 220.057 33.3506C219.852 33.3297 219.663 33.3929 219.467 33.4481C219.241 33.5123 219.012 33.5616 218.781 33.6024C218.295 33.6875 217.801 33.7129 217.309 33.7288C216.338 33.7602 215.368 33.7074 214.397 33.6821C213.282 33.6517 212.166 33.7035 211.051 33.7393C210.467 33.7582 209.882 33.7751 209.297 33.7896C208.707 33.804 208.102 33.7911 207.52 33.9016C207.436 33.918 207.435 34.0568 207.52 34.0728Z" fill="#AF1C9C"/>
<path d="M220.736 31.9764C220.201 32.06 219.865 32.8997 219.784 33.3635C219.76 33.4999 219.797 33.6333 219.923 33.7075C220.053 33.7831 220.272 33.7503 220.338 33.598C220.445 33.3476 220.501 33.0784 220.599 32.8235C220.687 32.5936 220.85 32.399 220.925 32.1661C220.964 32.0426 220.843 31.9595 220.736 31.9764Z" fill="#AF1C9C"/>
</svg>
